<mxfile modified="2020-10-23T17:45:53.440Z" host="56b45468-c4cb-4133-be74-a083fa257fdb" agent="5.0 (Windows NT 10.0; Win64; x64) AppleWebKit/537.36 (KHTML, like Gecko) Code/1.50.1 Chrome/83.0.4103.122 Electron/9.2.1 Safari/537.36" etag="9LhYhvWLH8HW-PgArnY6" version="13.6.5">
    <diagram id="7gcUSTIZ7YSJ5vT40chW" name="Page-1">
        <mxGraphModel dx="1535" dy="579" grid="1" gridSize="10" guides="1" tooltips="1" connect="1" arrows="1" fold="1" page="1" pageScale="1" pageWidth="1169" pageHeight="827" math="0" shadow="0">
            <root>
                <mxCell id="0"/>
                <mxCell id="1" parent="0"/>
                <mxCell id="pC3DhNFDrs2advZXgrvk-5" value="" style="edgeStyle=orthogonalEdgeStyle;rounded=0;orthogonalLoop=1;jettySize=auto;html=1;sketch=1;" parent="1" source="pC3DhNFDrs2advZXgrvk-2" target="pC3DhNFDrs2advZXgrvk-3" edge="1">
                    <mxGeometry relative="1" as="geometry"/>
                </mxCell>
                <mxCell id="pC3DhNFDrs2advZXgrvk-2" value="" style="shape=image;verticalLabelPosition=bottom;labelBackgroundColor=#ffffff;verticalAlign=top;aspect=fixed;imageAspect=0;image=data:image/svg+xml,PHN2ZyB4bWxuczpkYz0iaHR0cDovL3B1cmwub3JnL2RjL2VsZW1lbnRzLzEuMS8iIHhtbG5zOmNjPSJodHRwOi8vY3JlYXRpdmVjb21tb25zLm9yZy9ucyMiIHhtbG5zOnJkZj0iaHR0cDovL3d3dy53My5vcmcvMTk5OS8wMi8yMi1yZGYtc3ludGF4LW5zIyIgeG1sbnM6c3ZnPSJodHRwOi8vd3d3LnczLm9yZy8yMDAwL3N2ZyIgeG1sbnM9Imh0dHA6Ly93d3cudzMub3JnLzIwMDAvc3ZnIiB4bWxuczpzb2RpcG9kaT0iaHR0cDovL3NvZGlwb2RpLnNvdXJjZWZvcmdlLm5ldC9EVEQvc29kaXBvZGktMC5kdGQiIHhtbG5zOmlua3NjYXBlPSJodHRwOi8vd3d3Lmlua3NjYXBlLm9yZy9uYW1lc3BhY2VzL2lua3NjYXBlIiB2ZXJzaW9uPSIxLjEiIGlkPSJzdmc2MTMyMyIgaW5rc2NhcGU6dmVyc2lvbj0iMC45Mi4zICgyNDA1NTQ2LCAyMDE4LTAzLTExKSIgc29kaXBvZGk6ZG9jbmFtZT0iYXp1cmVfcG9ydGFsX3dlYl9hcHBzLnN2ZyIgeD0iMHB4IiB5PSIwcHgiIHZpZXdCb3g9IjAgMCA1MS4wMjkzMTcgNTEuMDIiIHhtbDpzcGFjZT0icHJlc2VydmUiIHdpZHRoPSI1MS4wMjkzMTYiIGhlaWdodD0iNTEuMDIiPjxtZXRhZGF0YSBpZD0ibWV0YWRhdGExMTY1NSI+PHJkZjpSREY+PGNjOldvcmsgcmRmOmFib3V0PSIiPjxkYzpmb3JtYXQ+aW1hZ2Uvc3ZnK3htbDwvZGM6Zm9ybWF0PjxkYzp0eXBlIHJkZjpyZXNvdXJjZT0iaHR0cDovL3B1cmwub3JnL2RjL2RjbWl0eXBlL1N0aWxsSW1hZ2UiLz48ZGM6dGl0bGUvPjwvY2M6V29yaz48L3JkZjpSREY+PC9tZXRhZGF0YT48ZGVmcyBpZD0iZGVmczExNjUzIi8+JiN4YTs8ZmlsdGVyIGlkPSJmaWx0ZXJfMiI+JiN4YTsJPGZlR2F1c3NpYW5CbHVyIGlkPSJmZUdhdXNzaWFuQmx1cjYxMjk2IiBzdGREZXZpYXRpb249IjIiLz4mI3hhOzwvZmlsdGVyPiYjeGE7PHNvZGlwb2RpOm5hbWVkdmlldyBib3JkZXJjb2xvcj0iIzY2NjY2NiIgYm9yZGVyb3BhY2l0eT0iMSIgZml0LW1hcmdpbi1ib3R0b209IjAiIGZpdC1tYXJnaW4tbGVmdD0iMCIgZml0LW1hcmdpbi1yaWdodD0iMCIgZml0LW1hcmdpbi10b3A9IjAiIGdyaWR0b2xlcmFuY2U9IjEwIiBndWlkZXRvbGVyYW5jZT0iMTAiIGlkPSJuYW1lZHZpZXc2MTMyNSIgaW5rc2NhcGU6Y3VycmVudC1sYXllcj0ic3ZnNjEzMjMiIGlua3NjYXBlOmN4PSItNDUuMDA0ODE4IiBpbmtzY2FwZTpjeT0iMzkuNDkwNjM4IiBpbmtzY2FwZTpwYWdlb3BhY2l0eT0iMCIgaW5rc2NhcGU6cGFnZXNoYWRvdz0iMiIgaW5rc2NhcGU6d2luZG93LWhlaWdodD0iMTAxNyIgaW5rc2NhcGU6d2luZG93LW1heGltaXplZD0iMSIgaW5rc2NhcGU6d2luZG93LXdpZHRoPSIxOTIwIiBpbmtzY2FwZTp3aW5kb3cteD0iLTgiIGlua3NjYXBlOndpbmRvdy15PSItOCIgaW5rc2NhcGU6em9vbT0iNC4zMDY1ODM0IiBvYmplY3R0b2xlcmFuY2U9IjEwIiBwYWdlY29sb3I9IiNmZmZmZmYiIHNob3dncmlkPSJmYWxzZSI+JiN4YTsJPC9zb2RpcG9kaTpuYW1lZHZpZXc+JiN4YTsmI3hhOzxwYXRoIGlkPSJwYXRoNjEzMDkiIGlua3NjYXBlOmNvbm5lY3Rvci1jdXJ2YXR1cmU9IjAiIHN0eWxlPSJmaWxsOiM1OWI0ZDkiIGQ9Im0gNDEuMDE0NTI2LDQ1Ljc2IGMgLTQuNjIsMy41MyAtMTAuMDcsNS4yNiAtMTUuNDcsNS4yNiAtNy42OCwwIC0xNS4yNywtMy40NSAtMjAuMjc5OTk5OSwtMTAuMDEgLTguNTcsLTExLjE5IC02LjQ2LC0yNy4xOCA0Ljc0OTk5OTksLTM1Ljc2IDQuNjIsLTMuNTUgMTAuMDgsLTUuMjUgMTUuNDgsLTUuMjUgNy42NywwIDE1LjI2LDMuNDUgMjAuMjgsMTAuMDEgOC41NywxMS4xOCA2LjQzLDI3LjE5IC00Ljc2LDM1Ljc1IHoiLz4mI3hhOyYjeGE7PHBhdGggaWQ9InBhdGg2MTMxNyIgaW5rc2NhcGU6Y29ubmVjdG9yLWN1cnZhdHVyZT0iMCIgc3R5bGU9ImZpbGw6I2ZmZmZmZiIgZD0ibSAzNi4zMzQ1MjYsMjkuOTggYyAxLjg1LDIuNDEgNS4yOSwyLjg1IDcuNywxLjAyIDAuMTIsLTAuMDkgMC4yMiwtMC4yMSAwLjMzLC0wLjMxIDIuNDYsMS43MyA0LjE3LDIuODcgNS4xMywzLjUzIDAuMjgsLTAuNzQgMC40OCwtMS40NSAwLjY4LC0yLjE5IC0xLjAxLC0wLjc2IC0yLjM5LC0xLjgxIC00LjM3LC0zLjQyIDAuNjUsLTEuNzIgMC40NCwtMy43MiAtMC43NSwtNS4yOCAtMS43LC0yLjIxIC00LjcyLC0yLjc3IC03LjA4LC0xLjQxIC0yLjYsLTIuMzMgLTUuNDUsLTUgLTguNDYsLTcuOTkgOS4zNSwtNS4wMyAxNiwtNC4yOSAxNiwtNC4yOSAtMS4xMSwtMS40MiAtMi4zNiwtMi42NiAtMy42OCwtMy43OCAtMy45NSwtMC42MSAtMTAuMDcsLTAuNTQgLTE3LjA3LDMuMTkgbCAtMC4wMSwtMC4wMSB2IDAgYyAtMi4zMywtMi40NCAtNC43MSwtNS4wNiAtNy4xMiwtNy44NyAtMS4xNiwwLjM3IC0yLjI5LDAuODMgLTMuMzgsMS4zOCAxLjc4LDIuOTIgNC4xOCw1Ljg3IDYuODksOC43NCAwLDAuMDEgMC4wMSwwLjAxIDAuMDIsMC4wMiAtMi4yNiwxLjU3IC00Ljc3LDMuNjggLTcuMDksNi4xMyAtMC4zLDAuMzIgLTAuNTgsMC42NCAtMC44NiwwLjk1IC0xLjM4LC0wLjI5IC0yLjg0LC0wLjIgLTQuMTk5OTk5OSwwLjI5IC0yLjMxLC00Ljk4IC0yLjEzLC04Ljk5IC0xLjc2LC0xMS4wNSAtMSwxLjA1IC0xLjk0LDIuMTUgLTIuNzUsMy4zMyAtMC42LDIuNDcgLTAuNzcsNi4wMiAxLjAxLDEwLjMgLTIuMDYsMi43IC0yLjE2LDYuNTIgLTAuMDEsOS4zNSAwLjE4LDAuMjMgMC4zNywwLjQ1IDAuNTcsMC42NSAtMC45NCwzLjIgLTEuMzYsNi4yOSAtMS40OSw4Ljk0IDAuMjQsMC4zMyAwLjI0LDAuNiAwLjQ4LDAuOTIgMS4yMywxLjU3IDIuNzYsMi44OSA0LjI1LDQuMDkgLTAuMTgsLTIuODEgMC4wMSwtNi45NSAxLjc0OTk5OTksLTExLjYxIDEuMiwwLjA5IDIuNDEsLTAuMDkgMy41NSwtMC41NyAwLjY2LDAuNTcgMS4zNCwxLjE1IDIuMDcsMS43NCAyLjUsMS45OCA1LDMuNTMgNy40Myw0Ljc0IC0wLjEyLDEuMjQgMC4xOSwyLjUyIDAuOTksMy41OSAxLjcyLDIuMjIgNC45MSwyLjY0IDcuMTMsMC45NCAwLjQ2LC0wLjM2IDAuODMsLTAuNzggMS4xMywtMS4yNCAzLjk3LDAuODggNy40NCwxLjA0IDEwLjAxLDEuMDQgMC4zOSwwIDIuMjIsLTIuNDkgMy4yNiwtNC4wMyAtMS41NiwwLjMzIC02LjIsMC45NyAtMTIuNTUsLTAuODYgLTAuMTUsLTAuNzEgLTAuNDQsLTEuNCAtMC45MSwtMi4wMiAtMS42MiwtMi4xMSAtNC41NiwtMi41NyAtNi43NiwtMS4xNSAtMi4yLC0xLjIgLTQuNTEsLTIuNyAtNi44OSwtNC41OSAtMC40OCwtMC4zOCAtMC45NSwtMC43NiAtMS4zOSwtMS4xNCAxLjQ1LC0yLjI5IDEuNjEsLTUuMjMgMC4zMiwtNy43IDAuMywtMC4yOSAwLjU4LC0wLjU5IDAuODksLTAuODggMi4zNiwtMi4yIDQuNTgsLTMuOTYgNi42NiwtNS4zOCAtMC4wOSwtMC4wOCAtMC4xNiwtMC4xNiAtMC4yNSwtMC4yNCAwLjA5LDAuMDggMC4xNiwwLjE2IDAuMjUsMC4yNCB2IDAgYyAzLjE4LDIuOTQgNi41Niw1LjczIDkuNzYsOC4yMyAtMC44NSwxLjc5IC0wLjcyLDMuOTggMC41Nyw1LjY2IHoiLz4mI3hhOzwvc3ZnPg==;" parent="1" vertex="1">
                    <mxGeometry x="200.0000000000001" y="250" width="51" height="51" as="geometry"/>
                </mxCell>
                <mxCell id="pC3DhNFDrs2advZXgrvk-6" value="" style="edgeStyle=orthogonalEdgeStyle;rounded=0;orthogonalLoop=1;jettySize=auto;html=1;sketch=1;" parent="1" source="pC3DhNFDrs2advZXgrvk-3" target="pC3DhNFDrs2advZXgrvk-4" edge="1">
                    <mxGeometry relative="1" as="geometry"/>
                </mxCell>
                <mxCell id="pC3DhNFDrs2advZXgrvk-3" value="" style="shape=image;verticalLabelPosition=bottom;labelBackgroundColor=#ffffff;verticalAlign=top;aspect=fixed;imageAspect=0;image=data:image/svg+xml,PHN2ZyB4bWxuczpjYz0iaHR0cDovL2NyZWF0aXZlY29tbW9ucy5vcmcvbnMjIiB4bWxuczpkYz0iaHR0cDovL3B1cmwub3JnL2RjL2VsZW1lbnRzLzEuMS8iIHhtbG5zOmlua3NjYXBlPSJodHRwOi8vd3d3Lmlua3NjYXBlLm9yZy9uYW1lc3BhY2VzL2lua3NjYXBlIiB4bWxuczpyZGY9Imh0dHA6Ly93d3cudzMub3JnLzE5OTkvMDIvMjItcmRmLXN5bnRheC1ucyMiIHhtbG5zOnNvZGlwb2RpPSJodHRwOi8vc29kaXBvZGkuc291cmNlZm9yZ2UubmV0L0RURC9zb2RpcG9kaS0wLmR0ZCIgeG1sbnM6c3ZnPSJodHRwOi8vd3d3LnczLm9yZy8yMDAwL3N2ZyIgeG1sbnM9Imh0dHA6Ly93d3cudzMub3JnLzIwMDAvc3ZnIiB4bWxuczp4bGluaz0iaHR0cDovL3d3dy53My5vcmcvMTk5OS94bGluayIgdmVyc2lvbj0iMS4xIiBpZD0ic3ZnMTk2OTUxIiBpbmtzY2FwZTp2ZXJzaW9uPSIwLjkyLjMgKDI0MDU1NDYsIDIwMTgtMDMtMTEpIiBzb2RpcG9kaTpkb2NuYW1lPSJweXRob25fdG9vbHNfYW5kX3Nkay5zdmciIHg9IjBweCIgeT0iMHB4IiB2aWV3Qm94PSIwIDAgNDggNDgiIHN0eWxlPSJlbmFibGUtYmFja2dyb3VuZDpuZXcgMCAwIDQ4IDQ4OyIgeG1sOnNwYWNlPSJwcmVzZXJ2ZSI+JiN4YTs8c29kaXBvZGk6bmFtZWR2aWV3IGJvcmRlcmNvbG9yPSIjNjY2NjY2IiBib3JkZXJvcGFjaXR5PSIxIiBmaXQtbWFyZ2luLWJvdHRvbT0iMCIgZml0LW1hcmdpbi1sZWZ0PSIwIiBmaXQtbWFyZ2luLXJpZ2h0PSIwIiBmaXQtbWFyZ2luLXRvcD0iMCIgZ3JpZHRvbGVyYW5jZT0iMTAiIGd1aWRldG9sZXJhbmNlPSIxMCIgaWQ9Im5hbWVkdmlldzE5Njk1MyIgaW5rc2NhcGU6Y3VycmVudC1sYXllcj0ic3ZnMTk2OTUxIiBpbmtzY2FwZTpjeD0iMzIuMDAwMDE1IiBpbmtzY2FwZTpjeT0iMzIuMDAwNTg2IiBpbmtzY2FwZTpwYWdlb3BhY2l0eT0iMCIgaW5rc2NhcGU6cGFnZXNoYWRvdz0iMiIgaW5rc2NhcGU6d2luZG93LWhlaWdodD0iMTAxNyIgaW5rc2NhcGU6d2luZG93LW1heGltaXplZD0iMSIgaW5rc2NhcGU6d2luZG93LXdpZHRoPSIxOTIwIiBpbmtzY2FwZTp3aW5kb3cteD0iLTgiIGlua3NjYXBlOndpbmRvdy15PSItOCIgaW5rc2NhcGU6em9vbT0iMTAuMjcyOTE3IiBvYmplY3R0b2xlcmFuY2U9IjEwIiBwYWdlY29sb3I9IiNmZmZmZmYiIHNob3dncmlkPSJmYWxzZSI+JiN4YTsJPC9zb2RpcG9kaTpuYW1lZHZpZXc+JiN4YTs8ZyBpZD0iZzE5Njk0OSIgdHJhbnNmb3JtPSJ0cmFuc2xhdGUoLTcuNjUsLTcuNjQ5MjgwNikiPiYjeGE7CTx0aXRsZSBpZD0idGl0bGUxOTY5MDUiPlBhZ2UtMTwvdGl0bGU+JiN4YTsJPGcgaWQ9Imdyb3VwMTE3Ny0xIiB0cmFuc2Zvcm09InRyYW5zbGF0ZSg3LjY1LC03LjYxMzQyKSI+JiN4YTsJCTx0aXRsZSBpZD0idGl0bGUxOTY5MDciPlB5dGhvbiBUb29scyBhbmQgU0RLPC90aXRsZT4mI3hhOwkJPGcgaWQ9Imdyb3VwMTE3OC0yIj4mI3hhOwkJCTx0aXRsZSBpZD0idGl0bGUxOTY5MDkiPlNoZWV0LjExNzg8L3RpdGxlPiYjeGE7CQkJPGcgaWQ9Imdyb3VwMTE3OS0zIiB0cmFuc2Zvcm09InRyYW5zbGF0ZSgwLC0xMi4zMTQ3KSI+JiN4YTsJCQkJPHRpdGxlIGlkPSJ0aXRsZTE5NjkxMSI+U2hlZXQuMTE3OTwvdGl0bGU+JiN4YTsJCQkJPGcgaWQ9InNoYXBlMTE4MC00Ij4mI3hhOwkJCQkJPHRpdGxlIGlkPSJ0aXRsZTE5NjkxMyI+U2hlZXQuMTE4MDwvdGl0bGU+JiN4YTsJCQkJCTxwYXRoIGlkPSJwYXRoMTk2OTE1IiBpbmtzY2FwZTpjb25uZWN0b3ItY3VydmF0dXJlPSIwIiBzdHlsZT0iZmlsbDojMzc3MkE0OyIgZD0iTTAsNTEuMTdjMC4wMi0wLjA2LDAuMDQtMC4xMywwLjA1LTAuMiAgICAgICBjMC4wNC0wLjcsMC4wNC0xLjQsMC4xMS0yLjFjMC4yNC0yLjI2LDAuNzYtNC40NCwyLjE4LTYuMjhjMS4xLTEuNDQsMi41NC0yLjMsNC4zMy0yLjU0YzAuMjUtMC4wMywwLjUxLTAuMDQsMC43Ni0wLjA0ICAgICAgIGM1LjM5LDAsMTAuNzksMCwxNi4xOCwwYzAuMzEsMCwwLjMxLDAsMC4zMi0wLjMyYzAtMC4zNy0wLjAyLTAuNzUsMC0xLjEyYzAuMDEtMC4yMy0wLjA3LTAuMjktMC4yOS0wLjI5ICAgICAgIGMtMi45OCwwLjAxLTUuOTUsMC4wMS04LjkzLDAuMDFjLTAuNywwLTEuMzktMC4wMS0yLjA5LDBjLTAuMTksMC0wLjI2LTAuMDUtMC4yNS0wLjI1YzAtMS44My0wLjAxLTMuNjcsMC01LjUgICAgICAgYzAuMDEtMC44MiwwLjQtMS41MSwwLjkzLTIuMTFjMC43NC0wLjg0LDEuNjktMS4zNiwyLjcxLTEuNzVjMS4yNi0wLjQ4LDIuNTctMC43MywzLjg5LTAuODljMS44My0wLjIzLDMuNjYtMC4yNSw1LjQ5LTAuMTcgICAgICAgYzEuOTcsMC4wOCwzLjkyLDAuMzUsNS43OCwxLjA3YzEuMjYsMC40OSwyLjQsMS4xNiwzLjIzLDIuMjZjMC42OSwwLjkxLDEuMDEsMS45MiwwLjk1LDMuMDhjLTAuMDUsMC45My0wLjAyLDEuODctMC4wMSwyLjgxICAgICAgIGMwLDEuNzMsMC4wMSwzLjQ2LDAuMDEsNS4xOWMwLDEuMDIsMC4wMiwyLjA0LTAuMDUsMy4wNmMtMC4xNCwyLjQtMS4yOSw0LjExLTMuNTEsNS4wNGMtMS4wMSwwLjQyLTIuMDYsMC42MS0zLjE0LDAuNjEgICAgICAgYy0zLjgyLDAtNy42NS0wLjAxLTExLjQ3LDBjLTEuMjIsMC0yLjM5LDAuMjctMy40NSwwLjkxYy0xLjQsMC44NS0yLjIsMi4xNS0yLjY1LDMuN2MtMC4yMiwwLjc3LTAuMzEsMS41Ny0wLjMyLDIuMzcgICAgICAgYzAsMS43MywwLDMuNDYsMCw1LjE5YzAsMC4zNSwwLDAuMzUtMC4zNCwwLjM1Yy0xLjI1LDAtMi40OSwwLjA0LTMuNzQsMC4wMWMtMS4yNy0wLjA0LTIuMzctMC41NC0zLjMyLTEuMzcgICAgICAgYy0xLjEyLTAuOTYtMS44Mi0yLjE5LTIuMzEtMy41NmMtMC40Ni0xLjI1LTAuNzMtMi41NC0wLjg0LTMuODZjLTAuMDgtMC44NC0wLjExLTEuNjgtMC4xNi0yLjUyICAgICAgIEMwLjA0LDUxLjg3LDAuMDIsNTEuNzgsMCw1MS42OUMwLDUxLjUyLDAsNTEuMzUsMCw1MS4xN3oiLz4mI3hhOwkJCQk8L2c+JiN4YTsJCQkJPGcgaWQ9InNoYXBlMTE4MS02IiB0cmFuc2Zvcm09InRyYW5zbGF0ZSgxNS4yMDMzLC0yNy44MzIpIj4mI3hhOwkJCQkJPHRpdGxlIGlkPSJ0aXRsZTE5NjkxOCI+U2hlZXQuMTE4MTwvdGl0bGU+JiN4YTsJCQkJCTxwYXRoIGlkPSJwYXRoMTk2OTIwIiBpbmtzY2FwZTpjb25uZWN0b3ItY3VydmF0dXJlPSIwIiBkPSJNMCw2MS4xNWMwLDEuMTksMC45NCwyLjE1LDIuMTEsMi4xNWMxLjE1LDAsMi4xMS0wLjk3LDIuMTEtMi4xMyAgICAgICBjMC0xLjE5LTAuOTUtMi4xNi0yLjExLTIuMTVDMC45Myw1OS4wMywwLDU5Ljk3LDAsNjEuMTV6Ii8+JiN4YTsJCQkJPC9nPiYjeGE7CQkJCTxnIGlkPSJzaGFwZTExODItOCIgdHJhbnNmb3JtPSJ0cmFuc2xhdGUoMTUuMjAzMywtMjcuODMyKSI+JiN4YTsJCQkJCTx0aXRsZSBpZD0idGl0bGUxOTY5MjMiPlNoZWV0LjExODI8L3RpdGxlPiYjeGE7CQkJCQk8cGF0aCBpZD0icGF0aDE5NjkyNSIgaW5rc2NhcGU6Y29ubmVjdG9yLWN1cnZhdHVyZT0iMCIgc3R5bGU9ImZpbGw6I0ZGRkZGRjsiIGQ9Ik0wLDYxLjE1YzAtMS4xOCwwLjkzLTIuMTIsMi4xMS0yLjEzICAgICAgIGMxLjE2LTAuMDEsMi4xMSwwLjk2LDIuMTEsMi4xNWMwLDEuMTYtMC45NiwyLjEzLTIuMTEsMi4xM0MwLjk0LDYzLjMsMCw2Mi4zNCwwLDYxLjE1eiIvPiYjeGE7CQkJCTwvZz4mI3hhOwkJCTwvZz4mI3hhOwkJCTxnIGlkPSJncm91cDExODMtMTAiIHRyYW5zZm9ybT0idHJhbnNsYXRlKDEyLjU5NCkiPiYjeGE7CQkJCTx0aXRsZSBpZD0idGl0bGUxOTY5MjkiPlNoZWV0LjExODM8L3RpdGxlPiYjeGE7CQkJCTxnIGlkPSJzaGFwZTExODQtMTEiPiYjeGE7CQkJCQk8dGl0bGUgaWQ9InRpdGxlMTk2OTMxIj5TaGVldC4xMTg0PC90aXRsZT4mI3hhOwkJCQkJPHBhdGggaWQ9InBhdGgxOTY5MzMiIGlua3NjYXBlOmNvbm5lY3Rvci1jdXJ2YXR1cmU9IjAiIHN0eWxlPSJmaWxsOiNGRkRBNEI7IiBkPSJNMzUuNDEsMzkuNjZjLTAuMDIsMC4wNy0wLjA1LDAuMTQtMC4wNSwwLjIxICAgICAgIGMtMC4wNCwwLjctMC4wNSwxLjQtMC4xMiwyLjA5Yy0wLjIzLDIuMjctMC43NSw0LjQ1LTIuMTcsNi4yOWMtMS4xLDEuNDQtMi41NCwyLjMtNC4zNCwyLjUzYy0wLjI1LDAuMDQtMC41LDAuMDUtMC43NiwwLjA1ICAgICAgIGMtNS4zOSwwLTEwLjc4LDAtMTYuMTcsMGMtMC4zMiwwLTAuMzIsMC0wLjMyLDAuMzJjMCwwLjM3LDAuMDEsMC43NSwwLDEuMTJjLTAuMDIsMC4yMywwLjA3LDAuMjksMC4yOCwwLjI5ICAgICAgIGMyLjk4LTAuMDEsNS45Ni0wLjAxLDguOTQtMC4wMWMwLjY5LDAsMS4zOSwwLjAxLDIuMDksMGMwLjE5LDAsMC4yNSwwLjA1LDAuMjUsMC4yNWMtMC4wMSwxLjgzLDAuMDEsMy42Ny0wLjAxLDUuNSAgICAgICBjLTAuMDEsMC44Mi0wLjM5LDEuNTEtMC45MywyLjExYy0wLjc0LDAuODMtMS42OCwxLjM2LTIuNywxLjc1Yy0xLjI2LDAuNDgtMi41NywwLjcyLTMuOSwwLjg5Yy0xLjgyLDAuMjMtMy42NSwwLjI1LTUuNDgsMC4xNyAgICAgICBjLTEuOTctMC4wOS0zLjkyLTAuMzUtNS43OC0xLjA3Yy0xLjI2LTAuNDktMi40LTEuMTYtMy4yNC0yLjI3Yy0wLjY4LTAuOS0xLTEuOTItMC45NC0zLjA3YzAuMDUtMC45MywwLjAxLTEuODcsMC4wMS0yLjgxICAgICAgIGMwLTEuNzMtMC4wMS0zLjQ2LTAuMDEtNS4xOWMwLTEuMDItMC4wMi0yLjA0LDAuMDQtMy4wNmMwLjE0LTIuNCwxLjI5LTQuMTEsMy41Mi01LjA0YzEtMC40MywyLjA2LTAuNjEsMy4xNC0wLjYxICAgICAgIGMzLjgyLDAsNy42NCwwLjAxLDExLjQ2LDBjMS4yMywwLDIuNC0wLjI3LDMuNDYtMC45MWMxLjQtMC44NSwyLjItMi4xNSwyLjY0LTMuN2MwLjIyLTAuNzcsMC4zMi0xLjU3LDAuMzItMi4zNyAgICAgICBjMC4wMS0xLjczLDAtMy40NiwwLTUuMmMwLTAuMzQsMC0wLjM0LDAuMzUtMC4zNGMxLjI0LDAsMi40OS0wLjA0LDMuNzMtMC4wMWMxLjI3LDAuMDQsMi4zNywwLjU0LDMuMzMsMS4zNyAgICAgICBjMS4xMSwwLjk2LDEuODEsMi4xOSwyLjMxLDMuNTZjMC40NSwxLjI1LDAuNzIsMi41NCwwLjg0LDMuODZjMC4wNywwLjg0LDAuMTEsMS42OCwwLjE2LDIuNTFjMCwwLjEsMC4wMywwLjE5LDAuMDUsMC4yOCAgICAgICBDMzUuNDEsMzkuMzIsMzUuNDEsMzkuNDksMzUuNDEsMzkuNjZ6Ii8+JiN4YTsJCQkJPC9nPiYjeGE7CQkJCTxnIGlkPSJzaGFwZTExODUtMTMiIHRyYW5zZm9ybT0idHJhbnNsYXRlKDE1Ljk4MTMsLTMuOTEyKSI+JiN4YTsJCQkJCTx0aXRsZSBpZD0idGl0bGUxOTY5MzYiPlNoZWV0LjExODU8L3RpdGxlPiYjeGE7CQkJCQk8cGF0aCBpZD0icGF0aDE5NjkzOCIgaW5rc2NhcGU6Y29ubmVjdG9yLWN1cnZhdHVyZT0iMCIgZD0iTTQuMjIsNjEuMTZjMC0xLjE5LTAuOTQtMi4xNS0yLjExLTIuMTVDMC45Niw1OS4wMiwwLDU5Ljk4LDAsNjEuMTQgICAgICAgYzAsMS4xOSwwLjk1LDIuMTYsMi4xMiwyLjE1UzQuMjIsNjIuMzQsNC4yMiw2MS4xNnoiLz4mI3hhOwkJCQk8L2c+JiN4YTsJCQkJPGcgaWQ9InNoYXBlMTE4Ni0xNSIgdHJhbnNmb3JtPSJ0cmFuc2xhdGUoMTUuOTgwNywtMy45MTIpIj4mI3hhOwkJCQkJPHRpdGxlIGlkPSJ0aXRsZTE5Njk0MSI+U2hlZXQuMTE4NjwvdGl0bGU+JiN4YTsJCQkJCTxwYXRoIGlkPSJwYXRoMTk2OTQzIiBpbmtzY2FwZTpjb25uZWN0b3ItY3VydmF0dXJlPSIwIiBzdHlsZT0iZmlsbDojRkZGRkZGOyIgZD0iTTQuMjIsNjEuMTZjMCwxLjE4LTAuOTMsMi4xMi0yLjEsMi4xMyAgICAgICBDMC45NSw2My4zLDAsNjIuMzMsMCw2MS4xNGMwLTEuMTYsMC45Ni0yLjEyLDIuMTEtMi4xM0MzLjI4LDU5LjAxLDQuMjIsNTkuOTcsNC4yMiw2MS4xNnoiLz4mI3hhOwkJCQk8L2c+JiN4YTsJCQk8L2c+JiN4YTsJCTwvZz4mI3hhOwk8L2c+JiN4YTs8L2c+JiN4YTs8L3N2Zz4=;" parent="1" vertex="1">
                    <mxGeometry x="201.5" y="396" width="48" height="48" as="geometry"/>
                </mxCell>
                <mxCell id="pC3DhNFDrs2advZXgrvk-13" value="" style="edgeStyle=orthogonalEdgeStyle;rounded=0;orthogonalLoop=1;jettySize=auto;html=1;entryX=1;entryY=0.5;entryDx=0;entryDy=0;exitX=0;exitY=0.5;exitDx=0;exitDy=0;sketch=1;" parent="1" source="pC3DhNFDrs2advZXgrvk-12" target="pC3DhNFDrs2advZXgrvk-4" edge="1">
                    <mxGeometry relative="1" as="geometry">
                        <mxPoint x="430" y="570" as="sourcePoint"/>
                    </mxGeometry>
                </mxCell>
                <mxCell id="pC3DhNFDrs2advZXgrvk-4" value="" style="shape=image;verticalLabelPosition=bottom;labelBackgroundColor=#ffffff;verticalAlign=top;aspect=fixed;imageAspect=0;image=data:image/svg+xml,PHN2ZyB4bWxuczpjYz0iaHR0cDovL2NyZWF0aXZlY29tbW9ucy5vcmcvbnMjIiB4bWxuczpkYz0iaHR0cDovL3B1cmwub3JnL2RjL2VsZW1lbnRzLzEuMS8iIHhtbG5zOmlua3NjYXBlPSJodHRwOi8vd3d3Lmlua3NjYXBlLm9yZy9uYW1lc3BhY2VzL2lua3NjYXBlIiB4bWxuczpyZGY9Imh0dHA6Ly93d3cudzMub3JnLzE5OTkvMDIvMjItcmRmLXN5bnRheC1ucyMiIHhtbG5zOnNvZGlwb2RpPSJodHRwOi8vc29kaXBvZGkuc291cmNlZm9yZ2UubmV0L0RURC9zb2RpcG9kaS0wLmR0ZCIgeG1sbnM6c3ZnPSJodHRwOi8vd3d3LnczLm9yZy8yMDAwL3N2ZyIgeG1sbnM9Imh0dHA6Ly93d3cudzMub3JnLzIwMDAvc3ZnIiB4bWxuczp4bGluaz0iaHR0cDovL3d3dy53My5vcmcvMTk5OS94bGluayIgdmVyc2lvbj0iMS4xIiBpZD0ic3ZnMzg5ODYiIGlua3NjYXBlOnZlcnNpb249IjAuOTIuMyAoMjQwNTU0NiwgMjAxOC0wMy0xMSkiIHNvZGlwb2RpOmRvY25hbWU9ImNzdl8xLnN2ZyIgeD0iMHB4IiB5PSIwcHgiIHZpZXdCb3g9IjAgMCAzMS44OCAzNi40NCIgc3R5bGU9ImVuYWJsZS1iYWNrZ3JvdW5kOm5ldyAwIDAgMzEuODggMzYuNDQ7IiB4bWw6c3BhY2U9InByZXNlcnZlIj4mI3hhOzxzb2RpcG9kaTpuYW1lZHZpZXcgYm9yZGVyY29sb3I9IiM2NjY2NjYiIGJvcmRlcm9wYWNpdHk9IjEiIGZpdC1tYXJnaW4tYm90dG9tPSIwIiBmaXQtbWFyZ2luLWxlZnQ9IjAiIGZpdC1tYXJnaW4tcmlnaHQ9IjAiIGZpdC1tYXJnaW4tdG9wPSIwIiBncmlkdG9sZXJhbmNlPSIxMCIgZ3VpZGV0b2xlcmFuY2U9IjEwIiBpZD0ibmFtZWR2aWV3Mzg5ODgiIGlua3NjYXBlOmN1cnJlbnQtbGF5ZXI9InN2ZzM4OTg2IiBpbmtzY2FwZTpjeD0iMTguNjk5MDk5IiBpbmtzY2FwZTpjeT0iMjMuOTk3OTYxIiBpbmtzY2FwZTpwYWdlb3BhY2l0eT0iMCIgaW5rc2NhcGU6cGFnZXNoYWRvdz0iMiIgaW5rc2NhcGU6d2luZG93LWhlaWdodD0iMTAxNyIgaW5rc2NhcGU6d2luZG93LW1heGltaXplZD0iMSIgaW5rc2NhcGU6d2luZG93LXdpZHRoPSIxOTIwIiBpbmtzY2FwZTp3aW5kb3cteD0iLTgiIGlua3NjYXBlOndpbmRvdy15PSItOCIgaW5rc2NhcGU6em9vbT0iMTYuNTYxNzExIiBvYmplY3R0b2xlcmFuY2U9IjEwIiBwYWdlY29sb3I9IiNmZmZmZmYiIHNob3dncmlkPSJmYWxzZSI+JiN4YTsJPC9zb2RpcG9kaTpuYW1lZHZpZXc+JiN4YTs8ZyBpZD0iZzM4OTg0IiB0cmFuc2Zvcm09InRyYW5zbGF0ZSgtNS4wMjg1NywtMS4xOTIyMTMpIj4mI3hhOwk8dGl0bGUgaWQ9InRpdGxlMzg5MzMiPlBhZ2UtMTwvdGl0bGU+JiN4YTsJPGcgaWQ9Imdyb3VwNDAyNi0xIiB0cmFuc2Zvcm09InRyYW5zbGF0ZSg1LjAyODU3LC0xLjYzMDQyKSI+JiN4YTsJCTx0aXRsZSBpZD0idGl0bGUzODkzNSI+Q1NWICMxPC90aXRsZT4mI3hhOwkJPGcgaWQ9Imdyb3VwNDAyNy0yIj4mI3hhOwkJCTx0aXRsZSBpZD0idGl0bGUzODkzNyI+RE9DICMxLjM2NzU4PC90aXRsZT4mI3hhOwkJCTxnIGlkPSJzaGFwZTQwMjgtMyIgdHJhbnNmb3JtPSJ0cmFuc2xhdGUoNC41NTQ1NikiPiYjeGE7CQkJCTx0aXRsZSBpZD0idGl0bGUzODkzOSI+U2hlZXQuNDAyODwvdGl0bGU+JiN4YTsJCQkJPHBhdGggaWQ9InBhdGgzODk0MSIgaW5rc2NhcGU6Y29ubmVjdG9yLWN1cnZhdHVyZT0iMCIgc3R5bGU9ImZpbGw6I0UyRTVFNzsiIGQ9Ik0yLjI4LDIuODNDMS4wMiwyLjgzLDAsMy44NSwwLDUuMXYzMS44OCAgICAgIGMwLDEuMjYsMS4wMiwyLjI4LDIuMjgsMi4yOGgyMi43N2MxLjI1LDAsMi4yOC0xLjAyLDIuMjgtMi4yOFYxMS45M2wtOS4xMS05LjFIMi4yOHoiLz4mI3hhOwkJCTwvZz4mI3hhOwkJCTxnIGlkPSJzaGFwZTQwMjktNSIgdHJhbnNmb3JtPSJ0cmFuc2xhdGUoMjIuNzcyOCwtMjcuMzI3NCkiPiYjeGE7CQkJCTx0aXRsZSBpZD0idGl0bGUzODk0NCI+U2hlZXQuNDAyOTwvdGl0bGU+JiN4YTsJCQkJPHBhdGggaWQ9InBhdGgzODk0NiIgaW5rc2NhcGU6Y29ubmVjdG9yLWN1cnZhdHVyZT0iMCIgc3R5bGU9ImZpbGw6I0IwQjdCRDsiIGQ9Ik0yLjI4LDM5LjI2aDYuODNMMCwzMC4xNXY2LjgzICAgICAgQzAsMzguMjQsMS4wMiwzOS4yNiwyLjI4LDM5LjI2eiIvPiYjeGE7CQkJPC9nPiYjeGE7CQkJPGcgaWQ9InNoYXBlNDAzMC03IiB0cmFuc2Zvcm09InRyYW5zbGF0ZSgyNS4wNTAxLC0yMC40OTU1KSI+JiN4YTsJCQkJPHRpdGxlIGlkPSJ0aXRsZTM4OTQ5Ij5TaGVldC40MDMwPC90aXRsZT4mI3hhOwkJCQk8cGF0aCBpZD0icGF0aDM4OTUxIiBpbmtzY2FwZTpjb25uZWN0b3ItY3VydmF0dXJlPSIwIiBzdHlsZT0iZmlsbDojQ0FEMUQ4OyIgZD0iTTYuODMsMzkuMjZMMCwzMi40M2g2LjgzVjM5LjI2eiIvPiYjeGE7CQkJPC9nPiYjeGE7CQkJPGcgaWQ9InNoYXBlNDAzMS05IiB0cmFuc2Zvcm09InRyYW5zbGF0ZSgwLC01LjY5MzIpIj4mI3hhOwkJCQk8dGl0bGUgaWQ9InRpdGxlMzg5NTQiPlNoZWV0LjQwMzE8L3RpdGxlPiYjeGE7CQkJCTxwYXRoIGlkPSJwYXRoMzg5NTYiIGlua3NjYXBlOmNvbm5lY3Rvci1jdXJ2YXR1cmU9IjAiIHN0eWxlPSJmaWxsOiNGMzBCQTA7IiBkPSJNMjcuMzMsMzguMTJjMCwwLjYzLTAuNTIsMS4xNC0xLjE0LDEuMTRIMS4xNCAgICAgIEMwLjUxLDM5LjI2LDAsMzguNzUsMCwzOC4xMlYyNi43NGMwLTAuNjMsMC41MS0xLjE0LDEuMTQtMS4xNGgyNS4wNWMwLjYyLDAsMS4xNCwwLjUxLDEuMTQsMS4xNEwyNy4zMywzOC4xMnoiLz4mI3hhOwkJCTwvZz4mI3hhOwkJCTxnIGlkPSJzaGFwZTQwMzItMTEiIHRyYW5zZm9ybT0idHJhbnNsYXRlKDQuNTU0NTYsLTQuNTU0NTYpIj4mI3hhOwkJCQk8dGl0bGUgaWQ9InRpdGxlMzg5NTkiPlNoZWV0LjQwMzI8L3RpdGxlPiYjeGE7CQkJCTxwYXRoIGlkPSJwYXRoMzg5NjEiIGlua3NjYXBlOmNvbm5lY3Rvci1jdXJ2YXR1cmU9IjAiIHN0eWxlPSJmaWxsOiNDQUQxRDg7IiBkPSJNMjEuNjMsMzguMTJIMHYxLjE0aDIxLjYzICAgICAgYzAuNjMsMCwxLjE0LTAuNTEsMS4xNC0xLjE0di0xLjE0QzIyLjc3LDM3LjYxLDIyLjI2LDM4LjEyLDIxLjYzLDM4LjEyeiIvPiYjeGE7CQkJPC9nPiYjeGE7CQk8L2c+JiN4YTsJCTxnIGlkPSJncm91cDQwMzMtMTMiIHRyYW5zZm9ybT0idHJhbnNsYXRlKDUuOSwtOS4yOTgxNikiPiYjeGE7CQkJPHRpdGxlIGlkPSJ0aXRsZTM4OTY1Ij5DU1YuMzY3NzA8L3RpdGxlPiYjeGE7CQkJPGcgaWQ9InNoYXBlNDAzNC0xNCI+JiN4YTsJCQkJPHRpdGxlIGlkPSJ0aXRsZTM4OTY3Ij5TaGVldC40MDM0PC90aXRsZT4mI3hhOwkJCQk8cGF0aCBpZD0icGF0aDM4OTY5IiBpbmtzY2FwZTpjb25uZWN0b3ItY3VydmF0dXJlPSIwIiBzdHlsZT0iZmlsbDojRkZGRkZGOyIgZD0iTTQuMzcsMzguNTdjLTAuMjMsMC4yMy0wLjUsMC40MS0wLjc5LDAuNTIgICAgICBjLTAuMywwLjEyLTAuNjIsMC4xNy0wLjk2LDAuMTdjLTAuMzgsMC0wLjcyLTAuMDctMS4wNC0wLjJjLTAuMzEtMC4xNC0wLjU5LTAuMzUtMC44Mi0wLjYyYy0wLjI0LTAuMjctMC40My0wLjYxLTAuNTYtMS4wMSAgICAgIEMwLjA3LDM3LjAyLDAsMzYuNTUsMCwzNi4wMWMwLTAuNTMsMC4wNy0xLDAuMi0xLjQxYzAuMTMtMC40LDAuMzItMC43NCwwLjU2LTEuMDFjMC4yMy0wLjI3LDAuNTEtMC40OCwwLjgzLTAuNjIgICAgICBzMC42Ni0wLjIxLDEuMDMtMC4yMWMwLjM0LDAsMC42NiwwLjA2LDAuOTYsMC4xN2MwLjI5LDAuMTIsMC41NiwwLjI5LDAuNzksMC41MmwtMC43MSwwLjY0Yy0wLjE0LTAuMTctMC4zLTAuMjktMC40Ny0wLjM2ICAgICAgYy0wLjE4LTAuMDgtMC4zNi0wLjEyLTAuNTQtMC4xMmMtMC4yMiwwLTAuNDIsMC4wNC0wLjYxLDAuMTJjLTAuMTksMC4wOS0wLjM2LDAuMjItMC41MSwwLjQxYy0wLjE1LDAuMi0wLjI3LDAuNDQtMC4zNSwwLjc1ICAgICAgYy0wLjA5LDAuMzEtMC4xMywwLjY4LTAuMTQsMS4xMmMwLjAxLDAuNDMsMC4wNSwwLjgsMC4xMywxLjFjMC4wOSwwLjMxLDAuMiwwLjU2LDAuMzQsMC43NWMwLjE1LDAuMTksMC4zMSwwLjMzLDAuNSwwLjQyICAgICAgYzAuMTgsMC4wOSwwLjM4LDAuMTQsMC41OCwwLjE0YzAuMjEsMCwwLjQtMC4wNCwwLjU4LTAuMTJjMC4xOC0wLjA3LDAuMzQtMC4xOSwwLjQ5LTAuMzZMNC4zNywzOC41N3oiLz4mI3hhOwkJCTwvZz4mI3hhOwkJCTxnIGlkPSJzaGFwZTQwMzUtMTYiIHRyYW5zZm9ybT0idHJhbnNsYXRlKDUuNzQzMzYsLTAuMDA4ODMwMjcpIj4mI3hhOwkJCQk8dGl0bGUgaWQ9InRpdGxlMzg5NzIiPlNoZWV0LjQwMzU8L3RpdGxlPiYjeGE7CQkJCTxwYXRoIGlkPSJwYXRoMzg5NzQiIGlua3NjYXBlOmNvbm5lY3Rvci1jdXJ2YXR1cmU9IjAiIHN0eWxlPSJmaWxsOiNGRkZGRkY7IiBkPSJNMy42NSwzNy40OWMwLDAuMjMtMC4wNCwwLjQ1LTAuMTQsMC42NiAgICAgIGMtMC4wOSwwLjIyLTAuMjIsMC40MS0wLjM5LDAuNTdjLTAuMTcsMC4xNy0wLjM5LDAuMy0wLjY0LDAuNGMtMC4yNSwwLjA5LTAuNTMsMC4xNC0wLjg1LDAuMTRjLTAuMTQsMC0wLjI4LTAuMDEtMC40Mi0wLjAyICAgICAgYy0wLjE1LTAuMDEtMC4yOS0wLjA0LTAuNDQtMC4wN2MtMC4xNS0wLjA0LTAuMjktMC4wOC0wLjQyLTAuMTRDMC4yMSwzOC45NiwwLjEsMzguODksMCwzOC44bDAuMTgtMC43NCAgICAgIGMwLjA4LDAuMDUsMC4xOCwwLjA5LDAuMywwLjE0YzAuMTIsMC4wNCwwLjI1LDAuMDgsMC4zOCwwLjEyYzAuMTMsMC4wNCwwLjI2LDAuMDYsMC4zOSwwLjA5YzAuMTMsMC4wMiwwLjI2LDAuMDMsMC4zNywwLjAzICAgICAgYzAuMzUsMCwwLjYxLTAuMDgsMC44LTAuMjRjMC4xOC0wLjE3LDAuMjgtMC40MSwwLjI4LTAuNzNjMC0wLjItMC4wNy0wLjM2LTAuMi0wLjVzLTAuMjktMC4yNi0wLjQ5LTAuMzggICAgICBjLTAuMi0wLjExLTAuNDEtMC4yMi0wLjY0LTAuMzNjLTAuMjItMC4xMi0wLjQ0LTAuMjUtMC42NC0wLjRjLTAuMi0wLjE1LTAuMzYtMC4zMy0wLjQ5LTAuNTRzLTAuMi0wLjQ2LTAuMi0wLjc3ICAgICAgYzAtMC4yOSwwLjA1LTAuNTQsMC4xNi0wLjc1YzAuMS0wLjIyLDAuMjQtMC40MSwwLjQxLTAuNTZzMC4zOC0wLjI3LDAuNjEtMC4zNWMwLjIzLTAuMDgsMC40Ny0wLjEyLDAuNzMtMC4xMiAgICAgIHMwLjUyLDAuMDIsMC43OSwwLjA3czAuNDgsMC4xMywwLjY1LDAuMjRjLTAuMDQsMC4wNy0wLjA4LDAuMTYtMC4xMiwwLjI1Yy0wLjA1LDAuMDktMC4wOSwwLjE3LTAuMTMsMC4yNSAgICAgIGMtMC4wNCwwLjA3LTAuMDcsMC4xNC0wLjEsMC4xOXMtMC4wNSwwLjA4LTAuMDUsMC4wOWMtMC4wNC0wLjAyLTAuMDctMC4wNC0wLjEyLTAuMDdjLTAuMDQtMC4wMy0wLjEtMC4wNi0wLjE4LTAuMDkgICAgICBjLTAuMDgtMC4wMy0wLjE5LTAuMDUtMC4zMi0wLjA2Yy0wLjEzLTAuMDEtMC4zLTAuMDEtMC41LDAuMDFjLTAuMTIsMC4wMS0wLjIyLDAuMDQtMC4zMywwLjFjLTAuMSwwLjA1LTAuMTksMC4xMi0wLjI3LDAuMiAgICAgIHMtMC4xNCwwLjE3LTAuMTksMC4yN2MtMC4wNCwwLjEtMC4wNywwLjItMC4wNywwLjI5YzAsMC4yMywwLjA3LDAuNDIsMC4yLDAuNTZjMC4xMywwLjE0LDAuMjksMC4yNiwwLjQ5LDAuMzcgICAgICBjMC4xOSwwLjExLDAuNCwwLjIxLDAuNjMsMC4zMWMwLjIzLDAuMSwwLjQ0LDAuMjIsMC42NCwwLjM3YzAuMTksMC4xNCwwLjM1LDAuMzIsMC40OSwwLjUzQzMuNTksMzYuODcsMy42NSwzNy4xNSwzLjY1LDM3LjQ5eiIvPiYjeGE7CQkJPC9nPiYjeGE7CQkJPGcgaWQ9InNoYXBlNDAzNi0xOCIgdHJhbnNmb3JtPSJ0cmFuc2xhdGUoMTAuMTkxMiwtMC4wMDgxOTk1MykiPiYjeGE7CQkJCTx0aXRsZSBpZD0idGl0bGUzODk3NyI+U2hlZXQuNDAzNjwvdGl0bGU+JiN4YTsJCQkJPHBhdGggaWQ9InBhdGgzODk3OSIgaW5rc2NhcGU6Y29ubmVjdG9yLWN1cnZhdHVyZT0iMCIgc3R5bGU9ImZpbGw6I0ZGRkZGRjsiIGQ9Ik0xLjk1LDM5LjI2TDAsMzIuODdoMS4xN2wxLjQ2LDUuNDlsMS41NC01LjQ5ICAgICAgaDEuMTdsLTIuMDUsNi4zOUwxLjk1LDM5LjI2eiIvPiYjeGE7CQkJPC9nPiYjeGE7CQk8L2c+JiN4YTsJPC9nPiYjeGE7PC9nPiYjeGE7PC9zdmc+;" parent="1" vertex="1">
                    <mxGeometry x="308.78" y="390.5" width="52.45" height="59" as="geometry"/>
                </mxCell>
                <mxCell id="pC3DhNFDrs2advZXgrvk-7" value="TripAdvisor.com" style="text;html=1;align=center;verticalAlign=middle;resizable=0;points=[];autosize=1;" parent="1" vertex="1">
                    <mxGeometry x="90" y="265.5" width="100" height="20" as="geometry"/>
                </mxCell>
                <mxCell id="pC3DhNFDrs2advZXgrvk-8" value="getReviews.py" style="text;html=1;align=center;verticalAlign=middle;resizable=0;points=[];autosize=1;" parent="1" vertex="1">
                    <mxGeometry x="95" y="410" width="90" height="20" as="geometry"/>
                </mxCell>
                <mxCell id="pC3DhNFDrs2advZXgrvk-9" value="/data/raw/reviews.csv" style="text;html=1;align=center;verticalAlign=middle;resizable=0;points=[];autosize=1;" parent="1" vertex="1">
                    <mxGeometry x="270" y="450" width="130" height="20" as="geometry"/>
                </mxCell>
                <mxCell id="pC3DhNFDrs2advZXgrvk-10" value="" style="shape=image;verticalLabelPosition=bottom;labelBackgroundColor=#ffffff;verticalAlign=top;aspect=fixed;imageAspect=0;image=data:image/svg+xml,PHN2ZyB4bWxuczpkYz0iaHR0cDovL3B1cmwub3JnL2RjL2VsZW1lbnRzLzEuMS8iIHhtbG5zOmNjPSJodHRwOi8vY3JlYXRpdmVjb21tb25zLm9yZy9ucyMiIHhtbG5zOnJkZj0iaHR0cDovL3d3dy53My5vcmcvMTk5OS8wMi8yMi1yZGYtc3ludGF4LW5zIyIgeG1sbnM6c3ZnPSJodHRwOi8vd3d3LnczLm9yZy8yMDAwL3N2ZyIgeG1sbnM9Imh0dHA6Ly93d3cudzMub3JnLzIwMDAvc3ZnIiB4bWxuczpzb2RpcG9kaT0iaHR0cDovL3NvZGlwb2RpLnNvdXJjZWZvcmdlLm5ldC9EVEQvc29kaXBvZGktMC5kdGQiIHhtbG5zOmlua3NjYXBlPSJodHRwOi8vd3d3Lmlua3NjYXBlLm9yZy9uYW1lc3BhY2VzL2lua3NjYXBlIiB2ZXJzaW9uPSIxLjEiIGlkPSJzdmc3NzczOCIgaW5rc2NhcGU6dmVyc2lvbj0iMC45Mi4zICgyNDA1NTQ2LCAyMDE4LTAzLTExKSIgc29kaXBvZGk6ZG9jbmFtZT0iZGF0YV9sYWtlX3N0b3JlLnN2ZyIgeD0iMHB4IiB5PSIwcHgiIHZpZXdCb3g9IjAgMCA4MS45NyA2NC4zNCIgeG1sOnNwYWNlPSJwcmVzZXJ2ZSIgd2lkdGg9IjgxLjk3MDAwMSIgaGVpZ2h0PSI2NC4zMzk5OTYiPjxtZXRhZGF0YSBpZD0ibWV0YWRhdGEyMzEwNCI+PHJkZjpSREY+PGNjOldvcmsgcmRmOmFib3V0PSIiPjxkYzpmb3JtYXQ+aW1hZ2Uvc3ZnK3htbDwvZGM6Zm9ybWF0PjxkYzp0eXBlIHJkZjpyZXNvdXJjZT0iaHR0cDovL3B1cmwub3JnL2RjL2RjbWl0eXBlL1N0aWxsSW1hZ2UiLz48ZGM6dGl0bGUvPjwvY2M6V29yaz48L3JkZjpSREY+PC9tZXRhZGF0YT48ZGVmcyBpZD0iZGVmczIzMTAyIi8+JiN4YTs8ZmlsdGVyIGlkPSJmaWx0ZXJfMiI+JiN4YTsJPGZlR2F1c3NpYW5CbHVyIGlkPSJmZUdhdXNzaWFuQmx1cjc3NzA4IiBzdGREZXZpYXRpb249IjIiLz4mI3hhOzwvZmlsdGVyPiYjeGE7PHNvZGlwb2RpOm5hbWVkdmlldyBib3JkZXJjb2xvcj0iIzY2NjY2NiIgYm9yZGVyb3BhY2l0eT0iMSIgZml0LW1hcmdpbi1ib3R0b209IjAiIGZpdC1tYXJnaW4tbGVmdD0iMCIgZml0LW1hcmdpbi1yaWdodD0iMCIgZml0LW1hcmdpbi10b3A9IjAiIGdyaWR0b2xlcmFuY2U9IjEwIiBndWlkZXRvbGVyYW5jZT0iMTAiIGlkPSJuYW1lZHZpZXc3Nzc0MCIgaW5rc2NhcGU6Y3VycmVudC1sYXllcj0ic3ZnNzc3MzgiIGlua3NjYXBlOmN4PSItMjEuMzc1NzIyIiBpbmtzY2FwZTpjeT0iMzMuOTg2NjM2IiBpbmtzY2FwZTpwYWdlb3BhY2l0eT0iMCIgaW5rc2NhcGU6cGFnZXNoYWRvdz0iMiIgaW5rc2NhcGU6d2luZG93LWhlaWdodD0iMTAxNyIgaW5rc2NhcGU6d2luZG93LW1heGltaXplZD0iMSIgaW5rc2NhcGU6d2luZG93LXdpZHRoPSIxOTIwIiBpbmtzY2FwZTp3aW5kb3cteD0iLTgiIGlua3NjYXBlOndpbmRvdy15PSItOCIgaW5rc2NhcGU6em9vbT0iNi4wMDM3Mzk3IiBvYmplY3R0b2xlcmFuY2U9IjEwIiBwYWdlY29sb3I9IiNmZmZmZmYiIHNob3dncmlkPSJmYWxzZSI+JiN4YTsJPC9zb2RpcG9kaTpuYW1lZHZpZXc+JiN4YTsmI3hhOzxwYXRoIGlkPSJwYXRoNzc3MjMiIGlua3NjYXBlOmNvbm5lY3Rvci1jdXJ2YXR1cmU9IjAiIHN0eWxlPSJmaWxsOiMzOTk5YzYiIGQ9Ik0gNDguNDQsNi42NCA0Ni4wNywyLjU0IEMgNDUuMTYsMC45OCA0My40NCwwIDQxLjY0LDAgSCA1LjA4IEMgMi4zLDAgMCwyLjI5IDAsNS4wOCBWIDcuNDYgNy43IEggNDkuMzQgQyA0OC45Myw3LjQ2IDQ4LjY5LDcuMDUgNDguNDQsNi42NCBaIi8+JiN4YTsmI3hhOzxwYXRoIGlkPSJwYXRoNzc3MzEiIGlua3NjYXBlOmNvbm5lY3Rvci1jdXJ2YXR1cmU9IjAiIHN0eWxlPSJmaWxsOiM1OWI0ZDkiIGQ9Ik0gNzguNzcsMTAuMzMgSCAwIHYgMy43NyA0NS4xNiBjIDAsMi43OSAyLjMsNS4wOCA1LjA4LDUuMDggaCA3MS44MSBjIDIuNzgsMCA1LjA4LC0yLjI5IDUuMDgsLTUuMDggViAxNSBjIDAsLTIuMDUgLTEuMzEsLTMuODUgLTMuMiwtNC42NyB6IE0gNTEuMzksMzQuOTIgMzYuODksNTUuNjYgYyAtMC4xNywwLjE2IC0wLjMzLDAuMzIgLTAuNTgsMC4zMiAtMC4wOCwwIC0wLjI0LDAgLTAuMzMsLTAuMDggLTAuMzIsLTAuMTYgLTAuNDksLTAuNDkgLTAuMzIsLTAuODIgbCAzLjc3LC0xMi4zNyBoIC04LjQ1IGMgLTAuMjQsMCAtMC40OSwtMC4xNyAtMC42NSwtMC40MSAtMC4wOCwtMC4yNSAtMC4wOCwtMC41IDAuMDgsLTAuNzQgbCAxNC4xLC0yMC40OSBjIDAuMTYsLTAuMTcgMC4zMywtMC4zMyAwLjU3LC0wLjMzIDAuMDgsMCAwLjE3LDAgMC4zMywwLjA4IDAuMzMsMC4xNiAwLjQ5LDAuNDkgMC4zMywwLjgyIGwgLTMuNjEsMTIuMTMgaCA4LjY5IGMgMC40MSwwIDAuNzQsMC4zMyAwLjc0LDAuNzQgMCwwLjE2IC0wLjA4LDAuMjQgLTAuMTcsMC40MSB6Ii8+JiN4YTs8L3N2Zz4=;" parent="1" vertex="1">
                    <mxGeometry x="620" y="400.2" width="52" height="40.59" as="geometry"/>
                </mxCell>
                <mxCell id="pC3DhNFDrs2advZXgrvk-11" value="&lt;span style=&quot;font-weight: normal&quot;&gt;Flow/Function&lt;br&gt;Triggers (?)&lt;br&gt;&lt;/span&gt;" style="text;html=1;align=center;verticalAlign=middle;resizable=0;points=[];autosize=1;fontStyle=1" parent="1" vertex="1">
                    <mxGeometry x="460.00000000000006" y="405" width="90" height="30" as="geometry"/>
                </mxCell>
                <mxCell id="pC3DhNFDrs2advZXgrvk-14" value="" style="edgeStyle=orthogonalEdgeStyle;rounded=0;orthogonalLoop=1;jettySize=auto;html=1;entryX=0;entryY=0.5;entryDx=0;entryDy=0;sketch=1;" parent="1" source="pC3DhNFDrs2advZXgrvk-12" target="pC3DhNFDrs2advZXgrvk-10" edge="1">
                    <mxGeometry relative="1" as="geometry">
                        <Array as="points">
                            <mxPoint x="590" y="477"/>
                            <mxPoint x="590" y="421"/>
                        </Array>
                    </mxGeometry>
                </mxCell>
                <mxCell id="pC3DhNFDrs2advZXgrvk-12" value="" style="shape=image;verticalLabelPosition=bottom;labelBackgroundColor=#ffffff;verticalAlign=top;aspect=fixed;imageAspect=0;image=data:image/svg+xml,PHN2ZyB4bWxuczpjYz0iaHR0cDovL2NyZWF0aXZlY29tbW9ucy5vcmcvbnMjIiB4bWxuczpkYz0iaHR0cDovL3B1cmwub3JnL2RjL2VsZW1lbnRzLzEuMS8iIHhtbG5zOmlua3NjYXBlPSJodHRwOi8vd3d3Lmlua3NjYXBlLm9yZy9uYW1lc3BhY2VzL2lua3NjYXBlIiB4bWxuczpyZGY9Imh0dHA6Ly93d3cudzMub3JnLzE5OTkvMDIvMjItcmRmLXN5bnRheC1ucyMiIHhtbG5zOnNvZGlwb2RpPSJodHRwOi8vc29kaXBvZGkuc291cmNlZm9yZ2UubmV0L0RURC9zb2RpcG9kaS0wLmR0ZCIgeG1sbnM6c3ZnPSJodHRwOi8vd3d3LnczLm9yZy8yMDAwL3N2ZyIgeG1sbnM9Imh0dHA6Ly93d3cudzMub3JnLzIwMDAvc3ZnIiB4bWxuczp4bGluaz0iaHR0cDovL3d3dy53My5vcmcvMTk5OS94bGluayIgdmVyc2lvbj0iMS4xIiBpZD0ic3ZnNTg1MzciIGlua3NjYXBlOnZlcnNpb249IjAuOTIuMyAoMjQwNTU0NiwgMjAxOC0wMy0xMSkiIHNvZGlwb2RpOmRvY25hbWU9ImF6dXJlX2Z1bmN0aW9ucy5zdmciIHg9IjBweCIgeT0iMHB4IiB2aWV3Qm94PSIwIDAgNTcuMzEgNTIuODEiIHN0eWxlPSJlbmFibGUtYmFja2dyb3VuZDpuZXcgMCAwIDU3LjMxIDUyLjgxOyIgeG1sOnNwYWNlPSJwcmVzZXJ2ZSI+JiN4YTs8c29kaXBvZGk6bmFtZWR2aWV3IGJvcmRlcmNvbG9yPSIjNjY2NjY2IiBib3JkZXJvcGFjaXR5PSIxIiBmaXQtbWFyZ2luLWJvdHRvbT0iMCIgZml0LW1hcmdpbi1sZWZ0PSIwIiBmaXQtbWFyZ2luLXJpZ2h0PSIwIiBmaXQtbWFyZ2luLXRvcD0iMCIgZ3JpZHRvbGVyYW5jZT0iMTAiIGd1aWRldG9sZXJhbmNlPSIxMCIgaWQ9Im5hbWVkdmlldzU4NTM5IiBpbmtzY2FwZTpjdXJyZW50LWxheWVyPSJzdmc1ODUzNyIgaW5rc2NhcGU6Y3g9IjM5LjQ3MTQ0MiIgaW5rc2NhcGU6Y3k9IjI2LjM0NTIxNyIgaW5rc2NhcGU6cGFnZW9wYWNpdHk9IjAiIGlua3NjYXBlOnBhZ2VzaGFkb3c9IjIiIGlua3NjYXBlOndpbmRvdy1oZWlnaHQ9IjEwMTciIGlua3NjYXBlOndpbmRvdy1tYXhpbWl6ZWQ9IjEiIGlua3NjYXBlOndpbmRvdy13aWR0aD0iMTkyMCIgaW5rc2NhcGU6d2luZG93LXg9Ii04IiBpbmtzY2FwZTp3aW5kb3cteT0iLTgiIGlua3NjYXBlOnpvb209IjYuMzkxNjgyOCIgb2JqZWN0dG9sZXJhbmNlPSIxMCIgcGFnZWNvbG9yPSIjZmZmZmZmIiBzaG93Z3JpZD0iZmFsc2UiPiYjeGE7CTwvc29kaXBvZGk6bmFtZWR2aWV3PiYjeGE7PGcgaWQ9Imc1ODUzNSIgdHJhbnNmb3JtPSJ0cmFuc2xhdGUoLTkuNTYzNDE2MSwtOS41Njc2MDUyKSI+JiN4YTsJPHRpdGxlIGlkPSJ0aXRsZTU4NTEwIj5QYWdlLTE8L3RpdGxlPiYjeGE7CTxnIGlkPSJncm91cDQ0MzYtMSIgdHJhbnNmb3JtPSJ0cmFuc2xhdGUoOS4zOTU0MywtOS41NjI1KSI+JiN4YTsJCTx0aXRsZSBpZD0idGl0bGU1ODUxMiI+QXp1cmUgRnVuY3Rpb25zLjQzNzwvdGl0bGU+JiN4YTsJCTxnIGlkPSJzaGFwZTQ0MzctMiIgdHJhbnNmb3JtPSJ0cmFuc2xhdGUoMzkuMjA1OSwtMTAuMjkzOCkiPiYjeGE7CQkJPHRpdGxlIGlkPSJ0aXRsZTU4NTE0Ij5TaGVldC40NDM3PC90aXRsZT4mI3hhOwkJCTxwYXRoIGlkPSJwYXRoNTg1MTYiIGlua3NjYXBlOmNvbm5lY3Rvci1jdXJ2YXR1cmU9IjAiIHN0eWxlPSJmaWxsOiMzOTk5QzY7IiBkPSJNMTcuOSw1Ni4xOGMwLjU0LTAuNTMsMC40NS0xLjUyLDAtMi4wNiAgICAgbC0yLjc3LTIuNzdsLTEyLjM2LTEyYy0wLjUzLTAuNTMtMS4zNC0wLjUzLTEuOTYsMGMtMC41NCwwLjU0LTAuNzIsMS41MywwLDIuMDZsMTIuOTcsMTIuNzFjMC41NCwwLjU0LDAuNTQsMS41MywwLDIuMDYgICAgIEwwLjU0LDY5LjM0QzAsNjkuODgsMCw3MC44NiwwLjU0LDcxLjRjMC41MywwLjU0LDEuNTIsMC40NSwxLjk3LDBsMTIuMjYtMTIuMTdjMCwwLDAsMCwwLjA5LTAuMDlMMTcuOSw1Ni4xOHoiLz4mI3hhOwkJPC9nPiYjeGE7CQk8ZyBpZD0ic2hhcGU0NDM4LTQiIHRyYW5zZm9ybT0idHJhbnNsYXRlKDAsLTEwLjI5MzgpIj4mI3hhOwkJCTx0aXRsZSBpZD0idGl0bGU1ODUxOSI+U2hlZXQuNDQzODwvdGl0bGU+JiN4YTsJCQk8cGF0aCBpZD0icGF0aDU4NTIxIiBpbmtzY2FwZTpjb25uZWN0b3ItY3VydmF0dXJlPSIwIiBzdHlsZT0iZmlsbDojMzk5OUM2OyIgZD0iTTAuNTQsNTYuMThjLTAuNTQtMC41My0wLjQ1LTEuNTIsMC0yLjA2ICAgICBsMi43Ny0yLjc3bDEyLjM1LTEyYzAuNTQtMC41MywxLjM1LTAuNTMsMS45NywwYzAuNTQsMC41NCwwLjcyLDEuNTMsMCwyLjA2TDQuOTIsNTQuMTJjLTAuNTMsMC41NC0wLjUzLDEuNTMsMCwyLjA2TDE3LjksNjkuMzQgICAgIGMwLjU0LDAuNTQsMC41NCwxLjUyLDAsMi4wNmMtMC41MywwLjU0LTEuNTIsMC40NS0xLjk3LDBMMy40LDU5LjQxYzAsMCwwLDAtMC4wOS0wLjA5TDAuNTQsNTYuMTh6Ii8+JiN4YTsJCTwvZz4mI3hhOwkJPGcgaWQ9InNoYXBlNDQzOS02IiB0cmFuc2Zvcm09InRyYW5zbGF0ZSgxNS45MzMpIj4mI3hhOwkJCTx0aXRsZSBpZD0idGl0bGU1ODUyNCI+U2hlZXQuNDQzOTwvdGl0bGU+JiN4YTsJCQk8cGF0aCBpZD0icGF0aDU4NTI2IiBpbmtzY2FwZTpjb25uZWN0b3ItY3VydmF0dXJlPSIwIiBzdHlsZT0iZmlsbDojRkNEMTE2OyIgZD0iTTI2Ljg1LDE5LjEzSDkuNEwwLDQ1LjYybDExLjQ2LDAuMDlMMi41MSw3MS45NCAgICAgbDI0LjctMzVIMTUuMjJMMjYuODUsMTkuMTN6Ii8+JiN4YTsJCTwvZz4mI3hhOwkJPGcgaWQ9InNoYXBlNDQ0MC04IiB0cmFuc2Zvcm09InRyYW5zbGF0ZSgxOC40MzkzKSI+JiN4YTsJCQk8dGl0bGUgaWQ9InRpdGxlNTg1MjkiPlNoZWV0LjQ0NDA8L3RpdGxlPiYjeGE7CQkJPHBhdGggaWQ9InBhdGg1ODUzMSIgaW5rc2NhcGU6Y29ubmVjdG9yLWN1cnZhdHVyZT0iMCIgc3R5bGU9ImZpbGw6I0ZGOEMwMDtmaWxsLW9wYWNpdHk6MC4zOyIgZD0iTTEyLjcxLDM2Ljk0bDExLjY0LTE3LjgxICAgICBoLTkuMTNMNS41NSw0MS4xNGwxMS40NiwwLjA5TDAsNzEuOTRsMjQuNzEtMzVMMTIuNzEsMzYuOTR6Ii8+JiN4YTsJCTwvZz4mI3hhOwk8L2c+JiN4YTs8L2c+JiN4YTs8L3N2Zz4=;" parent="1" vertex="1">
                    <mxGeometry x="474.80999999999995" y="450" width="57" height="53" as="geometry"/>
                </mxCell>
                <mxCell id="pC3DhNFDrs2advZXgrvk-16" value="" style="edgeStyle=orthogonalEdgeStyle;rounded=0;orthogonalLoop=1;jettySize=auto;html=1;entryX=1;entryY=0.5;entryDx=0;entryDy=0;sketch=1;" parent="1" source="pC3DhNFDrs2advZXgrvk-15" target="pC3DhNFDrs2advZXgrvk-4" edge="1">
                    <mxGeometry relative="1" as="geometry"/>
                </mxCell>
                <mxCell id="pC3DhNFDrs2advZXgrvk-17" value="" style="edgeStyle=orthogonalEdgeStyle;rounded=0;orthogonalLoop=1;jettySize=auto;html=1;entryX=0;entryY=0.5;entryDx=0;entryDy=0;sketch=1;" parent="1" source="pC3DhNFDrs2advZXgrvk-15" target="pC3DhNFDrs2advZXgrvk-10" edge="1">
                    <mxGeometry relative="1" as="geometry">
                        <Array as="points">
                            <mxPoint x="590" y="354"/>
                            <mxPoint x="590" y="421"/>
                        </Array>
                    </mxGeometry>
                </mxCell>
                <mxCell id="pC3DhNFDrs2advZXgrvk-15" value="" style="shape=image;verticalLabelPosition=bottom;labelBackgroundColor=#ffffff;verticalAlign=top;aspect=fixed;imageAspect=0;image=data:image/svg+xml,PHN2ZyB4bWxuczpkYz0iaHR0cDovL3B1cmwub3JnL2RjL2VsZW1lbnRzLzEuMS8iIHhtbG5zOmNjPSJodHRwOi8vY3JlYXRpdmVjb21tb25zLm9yZy9ucyMiIHhtbG5zOnJkZj0iaHR0cDovL3d3dy53My5vcmcvMTk5OS8wMi8yMi1yZGYtc3ludGF4LW5zIyIgeG1sbnM6c3ZnPSJodHRwOi8vd3d3LnczLm9yZy8yMDAwL3N2ZyIgeG1sbnM9Imh0dHA6Ly93d3cudzMub3JnLzIwMDAvc3ZnIiB4bWxuczpzb2RpcG9kaT0iaHR0cDovL3NvZGlwb2RpLnNvdXJjZWZvcmdlLm5ldC9EVEQvc29kaXBvZGktMC5kdGQiIHhtbG5zOmlua3NjYXBlPSJodHRwOi8vd3d3Lmlua3NjYXBlLm9yZy9uYW1lc3BhY2VzL2lua3NjYXBlIiB2ZXJzaW9uPSIxLjEiIGlkPSJzdmc4NDczMCIgaW5rc2NhcGU6dmVyc2lvbj0iMC45Mi4zICgyNDA1NTQ2LCAyMDE4LTAzLTExKSIgc29kaXBvZGk6ZG9jbmFtZT0ibWljcm9zb2Z0X2Zsb3cuc3ZnIiB4PSIwcHgiIHk9IjBweCIgdmlld0JveD0iMCAwIDUwLjg1IDM4LjA2IiBzdHlsZT0iZW5hYmxlLWJhY2tncm91bmQ6bmV3IDAgMCA1MC44NSAzOC4wNjsiIHhtbDpzcGFjZT0icHJlc2VydmUiPjxtZXRhZGF0YSBpZD0ibWV0YWRhdGEzMTk4Ij48cmRmOlJERj48Y2M6V29yayByZGY6YWJvdXQ9IiI+PGRjOmZvcm1hdD5pbWFnZS9zdmcreG1sPC9kYzpmb3JtYXQ+PGRjOnR5cGUgcmRmOnJlc291cmNlPSJodHRwOi8vcHVybC5vcmcvZGMvZGNtaXR5cGUvU3RpbGxJbWFnZSIvPjxkYzp0aXRsZS8+PC9jYzpXb3JrPjwvcmRmOlJERj48L21ldGFkYXRhPjxkZWZzIGlkPSJkZWZzMzE5NiIvPiYjeGE7PGZpbHRlciBpZD0iZmlsdGVyXzIiPiYjeGE7CTxmZUdhdXNzaWFuQmx1ciBpZD0iZmVHYXVzc2lhbkJsdXI4NDcwMyIgc3RkRGV2aWF0aW9uPSIyIi8+JiN4YTs8L2ZpbHRlcj4mI3hhOzxzb2RpcG9kaTpuYW1lZHZpZXcgYm9yZGVyY29sb3I9IiM2NjY2NjYiIGJvcmRlcm9wYWNpdHk9IjEiIGZpdC1tYXJnaW4tYm90dG9tPSIwIiBmaXQtbWFyZ2luLWxlZnQ9IjAiIGZpdC1tYXJnaW4tcmlnaHQ9IjAiIGZpdC1tYXJnaW4tdG9wPSIwIiBncmlkdG9sZXJhbmNlPSIxMCIgZ3VpZGV0b2xlcmFuY2U9IjEwIiBpZD0ibmFtZWR2aWV3ODQ3MzIiIGlua3NjYXBlOmN1cnJlbnQtbGF5ZXI9InN2Zzg0NzMwIiBpbmtzY2FwZTpjeD0iMjguNzkxMTIxIiBpbmtzY2FwZTpjeT0iMTcuOTE3NDYxIiBpbmtzY2FwZTpwYWdlb3BhY2l0eT0iMCIgaW5rc2NhcGU6cGFnZXNoYWRvdz0iMiIgaW5rc2NhcGU6d2luZG93LWhlaWdodD0iMTAxNyIgaW5rc2NhcGU6d2luZG93LW1heGltaXplZD0iMSIgaW5rc2NhcGU6d2luZG93LXdpZHRoPSIxOTIwIiBpbmtzY2FwZTp3aW5kb3cteD0iLTgiIGlua3NjYXBlOndpbmRvdy15PSItOCIgaW5rc2NhcGU6em9vbT0iMTQuMjc3MzkyIiBvYmplY3R0b2xlcmFuY2U9IjEwIiBwYWdlY29sb3I9IiNmZmZmZmYiIHNob3dncmlkPSJmYWxzZSI+JiN4YTsJPC9zb2RpcG9kaTpuYW1lZHZpZXc+JiN4YTsmI3hhOzxwYXRoIGlkPSJwYXRoODQ3MTYiIGlua3NjYXBlOmNvbm5lY3Rvci1jdXJ2YXR1cmU9IjAiIHN0eWxlPSJmaWxsOiMwMDc3RkY7IiBkPSJNMi4wNSwyMi40NFY2YzAtMi4xOCwxLjc3LTMuOTUsMy45NS0zLjk1aDM4Ljg1ICBjMi4xOCwwLDMuOTUsMS43NywzLjk1LDMuOTV2MjAuOTVjLTAuMDEsMi4xOC0xLjc3LDMuOTQtMy45NSwzLjk0SDI2LjkxdjIuMDVoMTcuOTRjMy4zMSwwLDUuOTktMi42OCw2LTUuOTlWNmMwLTMuMzEtMi42OS02LTYtNkg2ICBDMi42OSwwLDAsMi42OSwwLDZ2MTYuNDNMMi4wNSwyMi40NHoiLz4mI3hhOyYjeGE7PHBhdGggaWQ9InBhdGg4NDcyNCIgaW5rc2NhcGU6Y29ubmVjdG9yLWN1cnZhdHVyZT0iMCIgc3R5bGU9ImZpbGw6IzAwNzdGRjsiIGQ9Ik0yNi45NywxOC4zMmMwLDAuOTksMC44LDEuNzksMS43OSwxLjc5aDguMzQgIGMwLjk4LTAuMDEsMS43OC0wLjgxLDEuNzgtMS43OVY5Ljk0YzAtMC45OC0wLjgtMS43OC0xLjc4LTEuNzloLTguMzRjLTAuOTksMC0xLjc5LDAuOC0xLjc5LDEuNzl2Mi43SDIzLjYgIGMtMS40MSwwLTIuNjYsMC45MS0zLjEsMi4yNWwtNS4xMywxNS40OWMtMC4wNCwwLjEyLTAuMTUsMC4yLTAuMjgsMC4ybC0zLjE4LDAuMDF2LTIuN2MwLTAuOTgtMC44LTEuNzgtMS43OC0xLjc5SDEuNzkgIEMwLjgsMjYuMSwwLDI2LjksMCwyNy44OXY4LjM4YzAsMC45OSwwLjgsMS43OSwxLjc5LDEuNzloOC4zNGMwLjk4LTAuMDEsMS43OC0wLjgxLDEuNzgtMS43OXYtMi42OWgzLjE5YzEuNDEsMCwyLjY2LTAuOTEsMy4xLTIuMjUgIGw1LjEyLTE1LjQ5YzAuMDQtMC4xMiwwLjE1LTAuMiwwLjI4LTAuMmwzLjM3LTAuMDFMMjYuOTcsMTguMzJ6IE04LjkzLDM1LjA3SDIuOTh2LTUuOThoNS45NUw4LjkzLDM1LjA3eiIvPiYjeGE7PC9zdmc+;" parent="1" vertex="1">
                    <mxGeometry x="474.81" y="331" width="60.39" height="45" as="geometry"/>
                </mxCell>
                <mxCell id="pC3DhNFDrs2advZXgrvk-22" value="" style="edgeStyle=orthogonalEdgeStyle;rounded=0;orthogonalLoop=1;jettySize=auto;html=1;sketch=1;startArrow=none;startFill=0;entryX=0.75;entryY=0;entryDx=0;entryDy=0;endArrow=classic;endFill=1;" parent="1" source="pC3DhNFDrs2advZXgrvk-18" target="pC3DhNFDrs2advZXgrvk-10" edge="1">
                    <mxGeometry relative="1" as="geometry"/>
                </mxCell>
                <mxCell id="pC3DhNFDrs2advZXgrvk-18" value="" style="shape=image;verticalLabelPosition=bottom;labelBackgroundColor=#ffffff;verticalAlign=top;aspect=fixed;imageAspect=0;image=data:image/svg+xml,PHN2ZyB4bWxuczpkYz0iaHR0cDovL3B1cmwub3JnL2RjL2VsZW1lbnRzLzEuMS8iIHhtbG5zOmNjPSJodHRwOi8vY3JlYXRpdmVjb21tb25zLm9yZy9ucyMiIHhtbG5zOnJkZj0iaHR0cDovL3d3dy53My5vcmcvMTk5OS8wMi8yMi1yZGYtc3ludGF4LW5zIyIgeG1sbnM6c3ZnPSJodHRwOi8vd3d3LnczLm9yZy8yMDAwL3N2ZyIgeG1sbnM9Imh0dHA6Ly93d3cudzMub3JnLzIwMDAvc3ZnIiB4bWxuczp4bGluaz0iaHR0cDovL3d3dy53My5vcmcvMTk5OS94bGluayIgeG1sbnM6c29kaXBvZGk9Imh0dHA6Ly9zb2RpcG9kaS5zb3VyY2Vmb3JnZS5uZXQvRFREL3NvZGlwb2RpLTAuZHRkIiB4bWxuczppbmtzY2FwZT0iaHR0cDovL3d3dy5pbmtzY2FwZS5vcmcvbmFtZXNwYWNlcy9pbmtzY2FwZSIgdmVyc2lvbj0iMS4xIiBpZD0iTGF5ZXJfMSIgeD0iMHB4IiB5PSIwcHgiIHZpZXdCb3g9IjAgMCA0NC4yMTk5OTcgNDUuNzc5OTk5IiB4bWw6c3BhY2U9InByZXNlcnZlIiBzb2RpcG9kaTpkb2NuYW1lPSJhenVyZV9kYXRhYnJpY2tzLnN2ZyIgd2lkdGg9IjQ0LjIxOTk5NyIgaGVpZ2h0PSI0NS43Nzk5OTkiIGlua3NjYXBlOnZlcnNpb249IjAuOTIuMyAoMjQwNTU0NiwgMjAxOC0wMy0xMSkiPjxtZXRhZGF0YSBpZD0ibWV0YWRhdGEzMDcwMyI+PHJkZjpSREY+PGNjOldvcmsgcmRmOmFib3V0PSIiPjxkYzpmb3JtYXQ+aW1hZ2Uvc3ZnK3htbDwvZGM6Zm9ybWF0PjxkYzp0eXBlIHJkZjpyZXNvdXJjZT0iaHR0cDovL3B1cmwub3JnL2RjL2RjbWl0eXBlL1N0aWxsSW1hZ2UiLz48ZGM6dGl0bGUvPjwvY2M6V29yaz48L3JkZjpSREY+PC9tZXRhZGF0YT48ZGVmcyBpZD0iZGVmczMwNzAxIi8+PHNvZGlwb2RpOm5hbWVkdmlldyBwYWdlY29sb3I9IiNmZmZmZmYiIGJvcmRlcmNvbG9yPSIjNjY2NjY2IiBib3JkZXJvcGFjaXR5PSIxIiBvYmplY3R0b2xlcmFuY2U9IjEwIiBncmlkdG9sZXJhbmNlPSIxMCIgZ3VpZGV0b2xlcmFuY2U9IjEwIiBpbmtzY2FwZTpwYWdlb3BhY2l0eT0iMCIgaW5rc2NhcGU6cGFnZXNoYWRvdz0iMiIgaW5rc2NhcGU6d2luZG93LXdpZHRoPSIxOTIwIiBpbmtzY2FwZTp3aW5kb3ctaGVpZ2h0PSIxMDE3IiBpZD0ibmFtZWR2aWV3MzA2OTkiIHNob3dncmlkPSJmYWxzZSIgZml0LW1hcmdpbi10b3A9IjAiIGZpdC1tYXJnaW4tbGVmdD0iMCIgZml0LW1hcmdpbi1yaWdodD0iMCIgZml0LW1hcmdpbi1ib3R0b209IjAiIGlua3NjYXBlOnpvb209IjEuMDMwMzAzIiBpbmtzY2FwZTpjeD0iMjQwLjA4NSIgaW5rc2NhcGU6Y3k9Ii0xNzcuMzkiIGlua3NjYXBlOndpbmRvdy14PSItOCIgaW5rc2NhcGU6d2luZG93LXk9Ii04IiBpbmtzY2FwZTp3aW5kb3ctbWF4aW1pemVkPSIxIiBpbmtzY2FwZTpjdXJyZW50LWxheWVyPSJMYXllcl8xIi8+JiN4YTsmI3hhOzxnIGlkPSJnMzA2OTYiIHRyYW5zZm9ybT0idHJhbnNsYXRlKC01Ny4yOTAwMDEsLTE5Ny41OCkiPiYjeGE7CTxkZWZzIGlkPSJkZWZzMzA2NzUiPiYjeGE7CQk8cmVjdCBpZD0iU1ZHSURfM18iIHg9IjU3LjI5MDAwMSIgeT0iMTk3LjU4IiB3aWR0aD0iNDUuMzMwMDAyIiBoZWlnaHQ9IjQ4LjE2Ii8+JiN4YTsJPC9kZWZzPiYjeGE7CTxjbGlwUGF0aCBpZD0iU1ZHSURfNF8iPiYjeGE7CQk8dXNlIHhsaW5rOmhyZWY9IiNTVkdJRF8zXyIgc3R5bGU9Im92ZXJmbG93OnZpc2libGUiIGlkPSJ1c2UzMDY3NyIgeD0iMCIgeT0iMCIgd2lkdGg9IjEwMCUiIGhlaWdodD0iMTAwJSIvPiYjeGE7CTwvY2xpcFBhdGg+JiN4YTsJPGcgY2xpcC1wYXRoPSJ1cmwoI1NWR0lEXzRfKSIgaWQ9ImczMDY5NCI+JiN4YTsJCTxkZWZzIGlkPSJkZWZzMzA2ODEiPiYjeGE7CQkJPHJlY3QgaWQ9IlNWR0lEXzVfIiB4PSI1Ny4yOTAwMDEiIHk9IjE5Ny41OCIgd2lkdGg9IjQ1LjMzMDAwMiIgaGVpZ2h0PSI0OC4xNiIvPiYjeGE7CQk8L2RlZnM+JiN4YTsJCTxjbGlwUGF0aCBpZD0iU1ZHSURfNl8iPiYjeGE7CQkJPHVzZSB4bGluazpocmVmPSIjU1ZHSURfNV8iIHN0eWxlPSJvdmVyZmxvdzp2aXNpYmxlIiBpZD0idXNlMzA2ODMiIHg9IjAiIHk9IjAiIHdpZHRoPSIxMDAlIiBoZWlnaHQ9IjEwMCUiLz4mI3hhOwkJPC9jbGlwUGF0aD4mI3hhOwkJPHBvbHlnb24gc3R5bGU9ImZpbGw6I2RjMjEyNiIgcG9pbnRzPSI3OS40NiwyNDMuMzYgNTcuMjksMjMxLjMyIDU3LjI5LDIyNC4wMSA3OS40LDIxMi42MiAxMDEuNDUsMjI0LjAxIDEwMS40NSwyMzEuMzIgIiBjbGlwLXBhdGg9InVybCgjU1ZHSURfNl8pIiBpZD0icG9seWdvbjMwNjg2Ii8+JiN4YTsJCTxwb2x5Z29uIHN0eWxlPSJmaWxsOiNmMDU0MmQiIHBvaW50cz0iNzkuNCwyMzUuNTcgNTcuMjksMjI0LjAxIDc5LjQsMjEyLjYyIDEwMS41MSwyMjQuMDEgIiBjbGlwLXBhdGg9InVybCgjU1ZHSURfNl8pIiBpZD0icG9seWdvbjMwNjg4Ii8+JiN4YTsJCTxwb2x5Z29uIHN0eWxlPSJmaWxsOiNkYzIxMjYiIHBvaW50cz0iNzkuNDYsMjI4LjMyIDU3LjI5LDIxNi4yOCA1Ny4yOSwyMDguOTYgNzkuNCwxOTcuNTggMTAxLjQ1LDIwOC45NiAxMDEuNDUsMjE2LjI4ICIgY2xpcC1wYXRoPSJ1cmwoI1NWR0lEXzZfKSIgaWQ9InBvbHlnb24zMDY5MCIvPiYjeGE7CQk8cG9seWdvbiBzdHlsZT0iZmlsbDojZjA1NDJkIiBwb2ludHM9Ijc5LjQsMjIwLjUzIDU3LjI5LDIwOC45NiA3OS40LDE5Ny41OCAxMDEuNTEsMjA4Ljk2ICIgY2xpcC1wYXRoPSJ1cmwoI1NWR0lEXzZfKSIgaWQ9InBvbHlnb24zMDY5MiIvPiYjeGE7CTwvZz4mI3hhOzwvZz4mI3hhOzwvc3ZnPg==;" parent="1" vertex="1">
                    <mxGeometry x="760" y="344.5" width="43.52" height="45.5" as="geometry"/>
                </mxCell>
                <mxCell id="pC3DhNFDrs2advZXgrvk-28" value="" style="edgeStyle=orthogonalEdgeStyle;rounded=0;sketch=1;orthogonalLoop=1;jettySize=auto;html=1;shadow=0;startArrow=none;startFill=0;endArrow=classic;endFill=1;entryX=0.75;entryY=1;entryDx=0;entryDy=0;" parent="1" source="pC3DhNFDrs2advZXgrvk-19" target="pC3DhNFDrs2advZXgrvk-10" edge="1">
                    <mxGeometry relative="1" as="geometry"/>
                </mxCell>
                <mxCell id="pC3DhNFDrs2advZXgrvk-19" value="" style="shape=image;verticalLabelPosition=bottom;labelBackgroundColor=#ffffff;verticalAlign=top;aspect=fixed;imageAspect=0;image=data:image/svg+xml,PHN2ZyB4bWxuczpkYz0iaHR0cDovL3B1cmwub3JnL2RjL2VsZW1lbnRzLzEuMS8iIHhtbG5zOmNjPSJodHRwOi8vY3JlYXRpdmVjb21tb25zLm9yZy9ucyMiIHhtbG5zOnJkZj0iaHR0cDovL3d3dy53My5vcmcvMTk5OS8wMi8yMi1yZGYtc3ludGF4LW5zIyIgeG1sbnM6c3ZnPSJodHRwOi8vd3d3LnczLm9yZy8yMDAwL3N2ZyIgeG1sbnM9Imh0dHA6Ly93d3cudzMub3JnLzIwMDAvc3ZnIiB4bWxuczpzb2RpcG9kaT0iaHR0cDovL3NvZGlwb2RpLnNvdXJjZWZvcmdlLm5ldC9EVEQvc29kaXBvZGktMC5kdGQiIHhtbG5zOmlua3NjYXBlPSJodHRwOi8vd3d3Lmlua3NjYXBlLm9yZy9uYW1lc3BhY2VzL2lua3NjYXBlIiB2ZXJzaW9uPSIxLjEiIGlkPSJzdmc3MjQ4MCIgaW5rc2NhcGU6dmVyc2lvbj0iMC45Mi4zICgyNDA1NTQ2LCAyMDE4LTAzLTExKSIgc29kaXBvZGk6ZG9jbmFtZT0iY29nbml0aXZlX3NlcnZpY2VzLnN2ZyIgeD0iMHB4IiB5PSIwcHgiIHZpZXdCb3g9IjAgMCAxMjAuMDg2OTIgNzEuMTMiIHhtbDpzcGFjZT0icHJlc2VydmUiIHdpZHRoPSIxMjAuMDg2OTEiIGhlaWdodD0iNzEuMTI5OTk3Ij48bWV0YWRhdGEgaWQ9Im1ldGFkYXRhMjE1MTkiPjxyZGY6UkRGPjxjYzpXb3JrIHJkZjphYm91dD0iIj48ZGM6Zm9ybWF0PmltYWdlL3N2Zyt4bWw8L2RjOmZvcm1hdD48ZGM6dHlwZSByZGY6cmVzb3VyY2U9Imh0dHA6Ly9wdXJsLm9yZy9kYy9kY21pdHlwZS9TdGlsbEltYWdlIi8+PGRjOnRpdGxlLz48L2NjOldvcms+PC9yZGY6UkRGPjwvbWV0YWRhdGE+PGRlZnMgaWQ9ImRlZnMyMTUxNyIvPiYjeGE7PGZpbHRlciBpZD0iZmlsdGVyXzIiPiYjeGE7CTxmZUdhdXNzaWFuQmx1ciBpZD0iZmVHYXVzc2lhbkJsdXI3MjQwNSIgc3RkRGV2aWF0aW9uPSIyIi8+JiN4YTs8L2ZpbHRlcj4mI3hhOzxzb2RpcG9kaTpuYW1lZHZpZXcgYm9yZGVyY29sb3I9IiM2NjY2NjYiIGJvcmRlcm9wYWNpdHk9IjEiIGZpdC1tYXJnaW4tYm90dG9tPSIwIiBmaXQtbWFyZ2luLWxlZnQ9IjAiIGZpdC1tYXJnaW4tcmlnaHQ9IjAiIGZpdC1tYXJnaW4tdG9wPSIwIiBncmlkdG9sZXJhbmNlPSIxMCIgZ3VpZGV0b2xlcmFuY2U9IjEwIiBpZD0ibmFtZWR2aWV3NzI0ODIiIGlua3NjYXBlOmN1cnJlbnQtbGF5ZXI9InN2ZzcyNDgwIiBpbmtzY2FwZTpjeD0iMjMuMzQ3NjM2IiBpbmtzY2FwZTpjeT0iMjUuMzc2MzE2IiBpbmtzY2FwZTpwYWdlb3BhY2l0eT0iMCIgaW5rc2NhcGU6cGFnZXNoYWRvdz0iMiIgaW5rc2NhcGU6d2luZG93LWhlaWdodD0iMTAxNyIgaW5rc2NhcGU6d2luZG93LW1heGltaXplZD0iMSIgaW5rc2NhcGU6d2luZG93LXdpZHRoPSIxOTIwIiBpbmtzY2FwZTp3aW5kb3cteD0iLTgiIGlua3NjYXBlOndpbmRvdy15PSItOCIgaW5rc2NhcGU6em9vbT0iNC44MDg5OTYiIG9iamVjdHRvbGVyYW5jZT0iMTAiIHBhZ2Vjb2xvcj0iI2ZmZmZmZiIgc2hvd2dyaWQ9ImZhbHNlIj4mI3hhOwk8L3NvZGlwb2RpOm5hbWVkdmlldz4mI3hhOyYjeGE7PHBhdGggaWQ9InBhdGg3MjQxOCIgaW5rc2NhcGU6Y29ubmVjdG9yLWN1cnZhdHVyZT0iMCIgc3R5bGU9ImZpbGw6IzAwOTU4MCIgZD0ibSAxMTguNjAyNjksMzUuMjYgYyAtMi4xOCwtNS4xNyAtNi42OSwtOS41NCAtMTIuNTIsLTEyLjIxIC0yLjY5LC05LjA0IC0xMC4yMiwtMTguMDggLTIxLjQ0LC0xOC4wOCAtMC4zNiwwIC0wLjcyLDAuMDEgLTEuMDksMC4wMiAtNC42OCwtMy4zNSAtOS4yMywtNC45OSAtMTMuODYsLTQuOTkgLTIuNzksMCAtNS42NCwwLjYyIC04LjUsMS44MyAtMi4xMiwtMS4xIC00LjU1LC0xLjY4IC03LjE0LC0xLjY4IC01Ljc1LDAgLTExLjIsMi42NSAtMTQuNTYsNS43NiAtMS4wNiwtMC4yNSAtMi4xNiwtMC4zOCAtMy4zLC0wLjM4IC04LjU3LDAgLTE3LjA2LDcuMDggLTE5LjM2LDE1LjY3IC03LjM4OTk5OTksMi42OCAtMTIuNzc5OTk5OSw3LjU1IC0xNS4zMDk5OTk5LDEzLjg4IC0yLjQ1OTk5OTk5LDYuMTUgLTEuOTE5OTk5OTksMTMuMDIgMS40OCwxOC44NSAzLjM4LDUuOCA5LjI3OTk5OTksOS4yNiAxNS43OTk5OTk5LDkuMjYgMi41LDAgNC45MSwtMC41MSA3LjExLC0xLjQ5IDMuOTYsMy42IDkuMDYsNS43NSAxMy44OSw1Ljc1IDEuNjgsMCAzLjMsLTAuMjUgNC44MiwtMC43NCAzLjkxLDMuMjIgOS45LDQuNDIgMTQuNzcsNC40MiA1LjczLDAgMTAuNzIsLTEuNTEgMTQuMDIsLTQuMTYgMi4xNSwwLjk5IDQuNSwxLjUxIDYuOTcsMS41MSB2IDAgYyA2LjE1LDAgMTIuNTIsLTMuMjkgMTUuOTksLTcuODUgMS45NCwwLjggMy45OCwxLjIxIDYuMDQsMS4yMSB2IDAgYyA2LjczLDAgMTIuOTgsLTQuMzkgMTUuOTIsLTExLjE5IDIuMjQsLTUuMTggMi4zNCwtMTAuNSAwLjI3LC0xNS4zOSB6Ii8+JiN4YTsmI3hhOzxwYXRoIGlkPSJwYXRoNzI0MjYiIGlua3NjYXBlOmNvbm5lY3Rvci1jdXJ2YXR1cmU9IjAiIHN0eWxlPSJmaWxsOiNmZmZmZmYiIGQ9Ik0gMzguNjAyNjksNjcuNCBWIDQ2LjI2IGMgMCwtMi42MyAtMi4xMywtNC43NiAtNC43NiwtNC43NiBoIC03LjkyIHYgMy4zNiBoIDcuOTIgYyAwLjc3LDAgMS40LDAuNjMgMS40LDEuNCB2IDIwLjU4IGMgMS4xMSwwLjI5IDIuMjQsMC40OCAzLjM2LDAuNTYgeiIvPiYjeGE7JiN4YTs8cGF0aCBpZD0icGF0aDcyNDM0IiBpbmtzY2FwZTpjb25uZWN0b3ItY3VydmF0dXJlPSIwIiBzdHlsZT0iZmlsbDojZmZmZmZmIiBkPSJtIDUzLjIyMjY5LDMxLjIzIGggLTEwLjY0IGMgLTAuNzcsMCAtMS40LC0wLjYyIC0xLjQsLTEuMzkgViA0LjUzIGMgLTAuNiwwLjQ0IC0xLjE3LDAuOTEgLTEuNjgsMS4zOCAtMC41NSwtMC4xMyAtMS4xMSwtMC4yMiAtMS42OCwtMC4yOCB2IDI0LjIxIGMgMCwyLjYyIDIuMTQsNC43NiA0Ljc2LDQuNzYgaCAxMC42NCBjIDAuNzcsMCAxLjM5LDAuNjIgMS4zOSwxLjM5IHYgNy44OCBoIDMuMzcgdiAtNy44OCBjIDAsLTIuNjIgLTIuMTQsLTQuNzYgLTQuNzYsLTQuNzYgeiIvPiYjeGE7JiN4YTs8cGF0aCBpZD0icGF0aDcyNDQyIiBpbmtzY2FwZTpjb25uZWN0b3ItY3VydmF0dXJlPSIwIiBzdHlsZT0iZmlsbDojZmZmZmZmIiBkPSJtIDk4LjAwMjY5LDQ0LjY3IHYgLTMuMDIgaCAtMy4zNiB2IDMuMDIgYyAwLDAuNzcgLTAuNjMsMS40IC0xLjQsMS40IGggLTEzLjQ4IFYgMjEuOTUgYyAwLC0yLjYyIC0yLjEzLC00Ljc2IC00Ljc1LC00Ljc2IGggLTkuMTcgdiAzLjM3IGggOS4xNyBjIDAuNzcsMCAxLjM5LDAuNjIgMS4zOSwxLjM5IHYgNDYuMDQgYyAxLjA5LDAuMjcgMi4yMSwwLjQyIDMuMzYsMC40NiBWIDQ5LjQzIGggMTMuNDggYyAyLjYzLDAgNC43NiwtMi4xMyA0Ljc2LC00Ljc2IHoiLz4mI3hhOyYjeGE7PHBhdGggaWQ9InBhdGg3MjQ1MCIgaW5rc2NhcGU6Y29ubmVjdG9yLWN1cnZhdHVyZT0iMCIgc3R5bGU9ImZpbGw6I2ZmZmZmZiIgZD0ibSA1Ni4yOTI2OSw1Ny43OCBjIC00LjEzLDAgLTcuNDksLTMuMzYgLTcuNDksLTcuNDkgMCwtNC4xMyAzLjM2LC03LjUgNy40OSwtNy41IDQuMTQsMCA3LjUsMy4zNyA3LjUsNy41IDAsNC4xMyAtMy4zNyw3LjQ5IC03LjUsNy40OSB6IG0gMCwtMTEuODggYyAtMi40MSwwIC00LjM4LDEuOTcgLTQuMzgsNC4zOSAwLDIuNDIgMS45Nyw0LjM4IDQuMzgsNC4zOCAyLjQyLDAgNC4zOSwtMS45NiA0LjM5LC00LjM4IDAsLTIuNDIgLTEuOTcsLTQuMzkgLTQuMzksLTQuMzkgeiIvPiYjeGE7JiN4YTs8cGF0aCBpZD0icGF0aDcyNDU4IiBpbmtzY2FwZTpjb25uZWN0b3ItY3VydmF0dXJlPSIwIiBzdHlsZT0iZmlsbDojZmZmZmZmIiBkPSJtIDIwLjQ3MjY5LDUwLjY0IGMgLTQuMTMsMCAtNy40OSwtMy4zNiAtNy40OSwtNy40OSAwLC00LjE0IDMuMzYsLTcuNSA3LjQ5LC03LjUgNC4xMywwIDcuNSwzLjM3IDcuNSw3LjUgMCw0LjEzIC0zLjM2LDcuNDkgLTcuNSw3LjQ5IHogbSAwLC0xMS44OCBjIC0yLjQyLDAgLTQuMzgsMS45NyAtNC4zOCw0LjM5IDAsMi40MSAxLjk3LDQuMzggNC4zOCw0LjM4IDIuNDIsMCA0LjM5LC0xLjk3IDQuMzksLTQuMzggMCwtMi40MiAtMS45NywtNC4zOSAtNC4zOSwtNC4zOSB6Ii8+JiN4YTsmI3hhOzxwYXRoIGlkPSJwYXRoNzI0NjYiIGlua3NjYXBlOmNvbm5lY3Rvci1jdXJ2YXR1cmU9IjAiIHN0eWxlPSJmaWxsOiNmZmZmZmYiIGQ9Im0gOTYuMzQyNjksNDMuNDkgYyAtNC4xMywwIC03LjQ5LC0zLjM2IC03LjQ5LC03LjQ5IDAsLTQuMTMgMy4zNiwtNy40OSA3LjQ5LC03LjQ5IDQuMTMsMCA3LjUsMy4zNiA3LjUsNy40OSAwLDQuMTMgLTMuMzcsNy40OSAtNy41LDcuNDkgeiBtIDAsLTExLjg3IGMgLTIuNDIsMCAtNC4zOCwxLjk2IC00LjM4LDQuMzggMCwyLjQxIDEuOTcsNC4zOCA0LjM4LDQuMzggMi40MiwwIDQuMzksLTEuOTYgNC4zOSwtNC4zOCAwLC0yLjQyIC0xLjk3LC00LjM4IC00LjM5LC00LjM4IHoiLz4mI3hhOyYjeGE7PHBhdGggaWQ9InBhdGg3MjQ3NCIgaW5rc2NhcGU6Y29ubmVjdG9yLWN1cnZhdHVyZT0iMCIgc3R5bGU9ImZpbGw6I2ZmZmZmZiIgZD0ibSA2MC4zOTI2OSwyNi4zNCBjIC00LjEzLDAgLTcuNDksLTMuMzYgLTcuNDksLTcuNDkgMCwtNC4xMyAzLjM2LC03LjQ5IDcuNDksLTcuNDkgNC4xMywwIDcuNSwzLjM2IDcuNSw3LjQ5IDAsNC4xMyAtMy4zNiw3LjQ5IC03LjUsNy40OSB6IG0gMCwtMTEuODggYyAtMi40MiwwIC00LjM4LDEuOTcgLTQuMzgsNC4zOSAwLDIuNDEgMS45Nyw0LjM4IDQuMzgsNC4zOCAyLjQyLDAgNC4zOSwtMS45NyA0LjM5LC00LjM4IDAsLTIuNDIgLTEuOTcsLTQuMzkgLTQuMzksLTQuMzkgeiIvPiYjeGE7PC9zdmc+;" parent="1" vertex="1">
                    <mxGeometry x="760" y="450" width="50.71" height="30" as="geometry"/>
                </mxCell>
                <mxCell id="pC3DhNFDrs2advZXgrvk-27" value="" style="edgeStyle=orthogonalEdgeStyle;rounded=0;sketch=1;orthogonalLoop=1;jettySize=auto;html=1;shadow=0;startArrow=classic;startFill=1;endArrow=none;endFill=0;" parent="1" source="pC3DhNFDrs2advZXgrvk-23" target="pC3DhNFDrs2advZXgrvk-10" edge="1">
                    <mxGeometry relative="1" as="geometry"/>
                </mxCell>
                <mxCell id="pC3DhNFDrs2advZXgrvk-23" value="" style="shape=image;verticalLabelPosition=bottom;labelBackgroundColor=#ffffff;verticalAlign=top;aspect=fixed;imageAspect=0;image=data:image/svg+xml,PHN2ZyB4bWxuczpkYz0iaHR0cDovL3B1cmwub3JnL2RjL2VsZW1lbnRzLzEuMS8iIHhtbG5zOmNjPSJodHRwOi8vY3JlYXRpdmVjb21tb25zLm9yZy9ucyMiIHhtbG5zOnJkZj0iaHR0cDovL3d3dy53My5vcmcvMTk5OS8wMi8yMi1yZGYtc3ludGF4LW5zIyIgeG1sbnM6c3ZnPSJodHRwOi8vd3d3LnczLm9yZy8yMDAwL3N2ZyIgeG1sbnM9Imh0dHA6Ly93d3cudzMub3JnLzIwMDAvc3ZnIiB4bWxuczpzb2RpcG9kaT0iaHR0cDovL3NvZGlwb2RpLnNvdXJjZWZvcmdlLm5ldC9EVEQvc29kaXBvZGktMC5kdGQiIHhtbG5zOmlua3NjYXBlPSJodHRwOi8vd3d3Lmlua3NjYXBlLm9yZy9uYW1lc3BhY2VzL2lua3NjYXBlIiB2ZXJzaW9uPSIxLjEiIGlkPSJzdmc5MTUxMCIgaW5rc2NhcGU6dmVyc2lvbj0iMC45Mi4zICgyNDA1NTQ2LCAyMDE4LTAzLTExKSIgc29kaXBvZGk6ZG9jbmFtZT0icG93ZXJfYmlfZW1iZWRkZWQuc3ZnIiB4PSIwcHgiIHk9IjBweCIgdmlld0JveD0iMCAwIDg0LjI2IDg4LjcwMjAzNyIgeG1sOnNwYWNlPSJwcmVzZXJ2ZSIgd2lkdGg9Ijg0LjI2MDAwMiIgaGVpZ2h0PSI4OC43MDIwMzQiPjxtZXRhZGF0YSBpZD0ibWV0YWRhdGEyODkiPjxyZGY6UkRGPjxjYzpXb3JrIHJkZjphYm91dD0iIj48ZGM6Zm9ybWF0PmltYWdlL3N2Zyt4bWw8L2RjOmZvcm1hdD48ZGM6dHlwZSByZGY6cmVzb3VyY2U9Imh0dHA6Ly9wdXJsLm9yZy9kYy9kY21pdHlwZS9TdGlsbEltYWdlIi8+PGRjOnRpdGxlLz48L2NjOldvcms+PC9yZGY6UkRGPjwvbWV0YWRhdGE+PGRlZnMgaWQ9ImRlZnMyODciPiYjeGE7CSYjeGE7JiN4YTsJJiN4YTsmI3hhOwkmI3hhOyYjeGE7CSYjeGE7JiN4YTsJJiN4YTs8L2RlZnM+JiN4YTs8ZmlsdGVyIGlkPSJmaWx0ZXJfMiI+JiN4YTsJPGZlR2F1c3NpYW5CbHVyIGlkPSJmZUdhdXNzaWFuQmx1cjkxNDUzIiBzdGREZXZpYXRpb249IjIiLz4mI3hhOzwvZmlsdGVyPiYjeGE7PHNvZGlwb2RpOm5hbWVkdmlldyBib3JkZXJjb2xvcj0iIzY2NjY2NiIgYm9yZGVyb3BhY2l0eT0iMSIgZml0LW1hcmdpbi1ib3R0b209IjAiIGZpdC1tYXJnaW4tbGVmdD0iMCIgZml0LW1hcmdpbi1yaWdodD0iMCIgZml0LW1hcmdpbi10b3A9IjAiIGdyaWR0b2xlcmFuY2U9IjEwIiBndWlkZXRvbGVyYW5jZT0iMTAiIGlkPSJuYW1lZHZpZXc5MTUxMiIgaW5rc2NhcGU6Y3VycmVudC1sYXllcj0ic3ZnOTE1MTAiIGlua3NjYXBlOmN4PSItNTAuNTM4Nzk5IiBpbmtzY2FwZTpjeT0iMzcuMDA2NjM2IiBpbmtzY2FwZTpwYWdlb3BhY2l0eT0iMCIgaW5rc2NhcGU6cGFnZXNoYWRvdz0iMiIgaW5rc2NhcGU6d2luZG93LWhlaWdodD0iMTAxNyIgaW5rc2NhcGU6d2luZG93LW1heGltaXplZD0iMSIgaW5rc2NhcGU6d2luZG93LXdpZHRoPSIxOTIwIiBpbmtzY2FwZTp3aW5kb3cteD0iLTgiIGlua3NjYXBlOndpbmRvdy15PSItOCIgaW5rc2NhcGU6em9vbT0iNC4wOTY1OTQ1IiBvYmplY3R0b2xlcmFuY2U9IjEwIiBwYWdlY29sb3I9IiNmZmZmZmYiIHNob3dncmlkPSJmYWxzZSI+JiN4YTsJPC9zb2RpcG9kaTpuYW1lZHZpZXc+JiN4YTsmI3hhOzxwYXRoIGlkPSJwYXRoOTE0NzAiIGlua3NjYXBlOmNvbm5lY3Rvci1jdXJ2YXR1cmU9IjAiIGQ9Im0gMjYuNDYsNzEuMzQyMDMzIGMgMCwzLjA1IC0yLjM3LDUuNCAtNS40LDUuNCAtMy4wNCwwIC01LjM5LC0yLjM1IC01LjM5LC01LjQgdiAtMjMuNDEgYyAwLC0zLjA0IDIuMzUsLTUuNCA1LjM5LC01LjQgMy4wMywwIDUuNCwyLjM2IDUuNCw1LjQgeiIvPiYjeGE7JiN4YTs8cGF0aCBpZD0icGF0aDkxNDc4IiBpbmtzY2FwZTpjb25uZWN0b3ItY3VydmF0dXJlPSIwIiBkPSJtIDQyLjMsNzcuNzQyMDMzIGMgMCwzLjA1IC0yLjM3LDUuNCAtNS40LDUuNCAtMy4wNCwwIC01LjM5LC0yLjM1IC01LjM5LC01LjQgdiAtMzUuODggYyAwLC0zLjA0IDIuMzUsLTUuNCA1LjM5LC01LjQgMy4wMywwIDUuNCwyLjM2IDUuNCw1LjQgeiIvPiYjeGE7JiN4YTs8cGF0aCBpZD0icGF0aDkxNDg2IiBpbmtzY2FwZTpjb25uZWN0b3ItY3VydmF0dXJlPSIwIiBkPSJtIDEwLjc5LDY2LjExMjAzMyBjIDAsMy4wNSAtMi4zNyw1LjQgLTUuNCw1LjQgLTMuMDQsMCAtNS4zOSwtMi4zNSAtNS4zOSwtNS40IHYgLTEyLjYyIGMgMCwtMy4wNSAyLjM1LC01LjQgNS4zOSwtNS40IDMuMDMsMCA1LjQsMi4zNSA1LjQsNS40IHoiLz4mI3hhOyYjeGE7PHBhdGggaWQ9InBhdGg5MTQ5NCIgaW5rc2NhcGU6Y29ubmVjdG9yLWN1cnZhdHVyZT0iMCIgZD0ibSA1OC4xNCw4My4zMDIwMzMgYyAwLDMuMDUgLTIuMzcsNS40IC01LjQsNS40IC0zLjA0LDAgLTUuMzksLTIuMzUgLTUuMzksLTUuNCB2IC00Ny41MiBjIDAsLTMuMDIgMi4zNSwtNS4zOCA1LjM5LC01LjM4IDMuMDMsMCA1LjQsMi4zNiA1LjQsNS4zOCB6Ii8+JiN4YTsmI3hhOzxwYXRoIGlkPSJwYXRoOTE1MDIiIGlua3NjYXBlOmNvbm5lY3Rvci1jdXJ2YXR1cmU9IjAiIGQ9Im0gNzUuMzMsODAuOTUyMDMzIGMgLTAuODMsMCAtMS44NiwtMC4xNiAtMi42OSwtMC41IGwgLTYuNzQsLTIuMTkgYyAtMS4xOCwtMC4zNCAtMS43LC0xLjUyIC0xLjM2LC0yLjcxIDAuMzQsLTEuMTYgMS41MiwtMS42OCAyLjcxLC0xLjM0IGwgNi43MywyLjE5IGMgMS4zNSwwLjUyIDIuODcsMC4xOCA0LjA1LC0wLjY3IDEuMTcsLTAuODUgMS44NCwtMi4xOSAxLjg0LC0zLjcxIHYgLTQzLjY0IGMgMCwtMi4wMyAtMS4zNCwtMy44OSAtMy4yLC00LjM4IEwgMTIuODEsNC42MTIwMzM0IGMgLTEuMzUsLTAuNTEgLTIuODcsLTAuMTYgLTQuMDQsMC42OCAtMS4xOCwwLjg0IC0xLjg1LDIuMTkgLTEuODUsMy43MSBWIDM5LjAwMjAzMyBjIDAsMS4xOCAtMS4wMSwyLjE5IC0yLjIsMi4xOSAtMS4xOCwwIC0yLjE5LC0xLjAxIC0yLjE5LC0yLjE5IFYgOS4wMDIwMzM0IGMgMCwtMi44NyAxLjM0LC01LjQgMy41NCwtNy4yNSAyLjM1LC0xLjY3OTk5OTk4IDUuMjIsLTIuMTk5OTk5OTggNy45MiwtMS4zNDk5OTk5OCBMIDc3Ljg2LDE5Ljc5MjAzMyBjIDMuNzEsMS4xNyA2LjQsNC41NCA2LjQsOC41OSB2IDQzLjY0IGMgMCwyLjg2IC0xLjM0LDUuNTcgLTMuNyw3LjI1IC0xLjY5LDEuMTggLTMuMzcsMS42OCAtNS4yMywxLjY4IHoiLz4mI3hhOzwvc3ZnPg==;" parent="1" vertex="1">
                    <mxGeometry x="880" y="391.89" width="54" height="57.21" as="geometry"/>
                </mxCell>
                <mxCell id="pC3DhNFDrs2advZXgrvk-31" value="" style="edgeStyle=orthogonalEdgeStyle;rounded=0;orthogonalLoop=1;jettySize=auto;html=1;sketch=1;entryX=0.5;entryY=1;entryDx=0;entryDy=0;" parent="1" target="pC3DhNFDrs2advZXgrvk-19" edge="1">
                    <mxGeometry relative="1" as="geometry">
                        <mxPoint x="630" y="441" as="sourcePoint"/>
                        <mxPoint x="630" y="535.79" as="targetPoint"/>
                        <Array as="points">
                            <mxPoint x="630" y="500"/>
                            <mxPoint x="785" y="500"/>
                        </Array>
                    </mxGeometry>
                </mxCell>
                <mxCell id="pC3DhNFDrs2advZXgrvk-33" value="" style="edgeStyle=orthogonalEdgeStyle;rounded=0;orthogonalLoop=1;jettySize=auto;html=1;sketch=1;endArrow=none;endFill=0;exitX=0.5;exitY=0;exitDx=0;exitDy=0;startArrow=classic;startFill=1;" parent="1" source="pC3DhNFDrs2advZXgrvk-18" edge="1">
                    <mxGeometry relative="1" as="geometry">
                        <mxPoint x="630" y="305.2" as="sourcePoint"/>
                        <mxPoint x="630" y="400.2" as="targetPoint"/>
                    </mxGeometry>
                </mxCell>
                <mxCell id="pC3DhNFDrs2advZXgrvk-34" value="data engineering / modeling (?)" style="text;html=1;align=center;verticalAlign=middle;resizable=0;points=[];autosize=1;" parent="1" vertex="1">
                    <mxGeometry x="660" y="290" width="180" height="20" as="geometry"/>
                </mxCell>
                <mxCell id="pC3DhNFDrs2advZXgrvk-39" value="Azure Text Analytics (?)" style="text;html=1;align=center;verticalAlign=middle;resizable=0;points=[];autosize=1;" parent="1" vertex="1">
                    <mxGeometry x="680" y="510" width="140" height="20" as="geometry"/>
                </mxCell>
                <mxCell id="pC3DhNFDrs2advZXgrvk-40" value="Visualization (?)" style="text;html=1;align=center;verticalAlign=middle;resizable=0;points=[];autosize=1;" parent="1" vertex="1">
                    <mxGeometry x="930" y="410" width="100" height="20" as="geometry"/>
                </mxCell>
                <mxCell id="pC3DhNFDrs2advZXgrvk-43" value="FlyWhy Conceptual Overview" style="text;html=1;align=center;verticalAlign=middle;resizable=0;points=[];autosize=1;fontSize=24;" parent="1" vertex="1">
                    <mxGeometry x="70" y="70" width="330" height="30" as="geometry"/>
                </mxCell>
                <mxCell id="2" value="&lt;div style=&quot;text-align: left&quot;&gt;&lt;span style=&quot;font-weight: normal&quot;&gt;High level conceptual overview of FlyWhy components.&amp;nbsp;&lt;/span&gt;&lt;/div&gt;&lt;span style=&quot;font-weight: normal&quot;&gt;&lt;div style=&quot;text-align: left&quot;&gt;&lt;span&gt;Everything to the right of .csv file is up for discussion.&lt;/span&gt;&lt;/div&gt;&lt;div style=&quot;text-align: left&quot;&gt;&lt;span&gt;&lt;br&gt;&lt;/span&gt;&lt;/div&gt;&lt;div style=&quot;text-align: left&quot;&gt;&lt;span&gt;The thinking is that we would want to incorporate data into data lake.&lt;/span&gt;&lt;/div&gt;&lt;div style=&quot;text-align: left&quot;&gt;&lt;span&gt;But processing could also happen locally.&lt;/span&gt;&lt;/div&gt;&lt;/span&gt;" style="text;html=1;align=center;verticalAlign=middle;resizable=0;points=[];autosize=1;fontStyle=1" vertex="1" parent="1">
                    <mxGeometry x="70.00000000000006" y="110" width="380" height="70" as="geometry"/>
                </mxCell>
            </root>
        </mxGraphModel>
    </diagram>
</mxfile>